<?xml version="1.0" encoding="utf-8"?>
<!-- Generator: Adobe Adobe Illustrator 24.2.0, SVG Export Plug-In . SVG Version: 6.00 Build 0)  -->
<svg version="1.1" id="Layer_10" xmlns="http://www.w3.org/2000/svg" xmlns:xlink="http://www.w3.org/1999/xlink" x="0px" y="0px"
	 width="1803.34px" height="1701.07px" viewBox="0 0 1803.34 1701.07" style="enable-background:new 0 0 1803.34 1701.07;"
	 xml:space="preserve">
<style type="text/css">
	.st0{fill:#122F3F;}
	.st1{fill:#067E87;}
	.st2{fill:#61C37B;}
	.st3{fill:none;stroke:#122F3F;stroke-width:23;stroke-miterlimit:10;}
	.st4{clip-path:url(#SVGID_2_);}
	.st5{fill:none;}
	.st6{clip-path:url(#SVGID_4_);}
	.st7{fill:#1FB578;}
	.st8{fill:#73DDDA;}
	.st9{fill:#FFFFFF;}
	.st10{fill:#006168;}
	.st11{fill:#123E6B;}
	.st12{fill:#048982;}
	.st13{fill:#ADD57F;}
	.st14{fill:#57C5C6;}
	.st15{fill:#FFFFFF;stroke:#092F3F;stroke-width:30;stroke-miterlimit:10;}
	.st16{fill:#FFFFFF;stroke:#092F3F;stroke-width:30;stroke-linecap:round;stroke-miterlimit:10;}
	.st17{fill:none;stroke:#005366;stroke-width:10;stroke-miterlimit:10;}
	.st18{clip-path:url(#SVGID_6_);}
	.st19{clip-path:url(#SVGID_8_);}
	.st20{fill:none;stroke:#092F3F;stroke-width:21;stroke-miterlimit:10;}
	.st21{fill:#FFFFFF;stroke:#122F3F;stroke-width:25;stroke-linejoin:round;stroke-miterlimit:10;}
	.st22{fill:#FFFFFF;stroke:#122F3F;stroke-width:25;stroke-linecap:round;stroke-linejoin:round;stroke-miterlimit:10;}
</style>
<g id="Layer_17">
	<g id="Layer_6">
		<circle class="st0" cx="901.67" cy="850.53" r="839.15"/>
	</g>
	<g id="Layer_4">
		<g id="Layer_8">
			<circle class="st1" cx="901.67" cy="850.53" r="537.45"/>
		</g>
		<g>
			<path class="st2" d="M1229.85,620.07c12.18,3.92,25.71,11.37,26.99,24.1c1.52,15.04-15.74,25.62-30.85,25.9
				c-15.11,0.28-29.88-5.57-44.98-4.92c-17.6,0.76-34.74,10.29-52.03,6.93c-16.23-3.16-28.07-16.8-42.56-24.76
				c-23.47-12.89-52.61-10.03-78.05-1.65c-54.36,17.9-100.17,60.21-122.33,112.97c-11.45,27.26-16.77,57.62-11.54,86.72
				s21.75,56.71,46.96,72.16c31.05,19.02,70.45,17.73,106.11,10.32c12.6-2.62,25.3-5.94,38.15-5.09
				c33.54,2.23,59.34,32.93,68.27,65.34c8.93,32.41,5.08,66.73,3.76,100.32c-1.43,36.63,0.25,73.38,5.02,109.73
				c1.04,7.92,2.63,16.57,8.79,21.66c6.05,5,14.71,5.03,22.5,4.09c42.49-5.13,81.46-33.43,99.49-72.24
				c7.5-16.15,11.51-33.68,17.67-50.39c7.3-19.79,17.58-38.32,27.04-57.17c33.95-67.7,57.6-140.56,69.89-215.3
				c2.23-13.6-0.3-32.97-14.07-33.45c-16.57-0.58-23.43,29.42-39.61,25.81c-5.37-1.2-9.06-6-12.12-10.57
				c-14.22-21.25-25.16-44.69-32.3-69.25c-2.47-8.48-0.68-21.8,8.08-20.66c4.19,0.54,6.86,4.62,8.95,8.28
				c10.69,18.71,21.37,37.43,32.06,56.14c2.31,4.04,5.19,8.5,9.77,9.26c7.03,1.18,11.84-6.78,14.21-13.5
				c8.48-24,13.56-49.19,15.06-74.6c0.51-8.72,0.51-17.91-3.66-25.59s-13.8-13.06-21.84-9.65c-4.12,1.74-7.22,5.45-11.44,6.92
				c-7.73,2.69-16.28-3.45-19.21-11.1c-2.93-7.64-1.78-16.17-0.58-24.26c20.61,2.95,28.58,35.43,49.39,34.9
				c12.22-0.31,20.94-13.42,20.94-25.64c0-12.22-6.24-23.48-12.42-34.02c-44.61-76.06-97.21-149.89-169.56-200.29
				c-56.91-39.63-123.37-62.92-189.39-84.16c-4.71-1.52-14.95-17.77-19.75-16.53c-4.79,1.24,15.31,19.89,17.11,24.51
				c18.53,24.73,23.21,10.98,40.35,23.62c17.14,12.64,28.94,35.12,22.57,55.44c-5.33,2.1-12.09-0.95-14.05-6.33
				c-5.41-11.71-18.05-19.68-30.95-19.52c-12.9,0.16-25.33,8.45-30.45,20.3c-7.74,17.94-8.17,34.69-16.74,54.53
				c-5.47,6.57,67.31,13.35,77.77-16.67c0.72-2.08,1.37-4.33,3.02-5.79c4.98-4.45,12.39,2.21,14.44,8.56
				c8,24.82-13.19,54.34-39.26,54.7c-6.21,0.09-12.59-1.19-18.53,0.65c-5.25,1.62-9.45,5.48-13.47,9.22
				c-16.36,15.24-33.22,31.2-41.49,51.98c-1.17,2.94-2.17,5.98-3.85,8.66c-3.02,4.8-7.95,8.02-12.72,11.08
				c-2.86,1.84-5.73,3.68-8.59,5.51c-13.19,8.46-28.29,22.14-22.73,36.79c4.54,11.98,20.19,15.05,32.92,13.61
				c22.43-2.52,43.8-13.53,58.89-30.32c6.59-7.33,12.09-15.79,19.92-21.77c13.96-10.67,34.69-11.46,49.42-1.88
				c8.12,5.28,14.25,13.17,22.24,18.64s19.5,8.02,27,1.89c7.61-6.21,7.33-17.72,6.38-27.49c23.21,26.84,59.63,41.67,92.23,34.72
				C1233.16,620.42,1234.21,619.38,1229.85,620.07z"/>
			<path class="st2" d="M767.87,333.58c-9.46,6.09-9.92,7.67-19.03,18.26c-13.11,14.04-6.85,28.17-19.16,36.82
				s-28.45,18.92-25.79,33.72c3.45,3.45-51.06,2.69-68,22.12c-5.01,5.75-9.7,12.28-10.7,19.84c-1,7.56,2.86,16.24,10.19,18.36
				c8.97,2.59,17.35-5.07,23.56-12.04c13.72-15.41,19.3-19.97,33.02-35.38c15.01-16.6,12.21,6.38,17.49,13.29
				c5.29,6.91,28.25,4.49,22.86,8.4c0.3,25.42,0.6,50.84,0.89,76.25c0.08,7.19-1.68,16.65-8.82,17.5
				c-11.21,1.33-9.62-16.8-13.58-27.37c-5.52-14.76-32.53-11.02-33.83,4.68c-0.86,10.31,7.32,20.82,3.34,30.37
				c-6.27,15.02-28.71,6.48-44.88,8.34c-10.62,1.23-19.68,8.01-27.93,14.81c-35.96,29.64-67.7,64.4-93.97,102.9
				c-5.19,7.6-14.12,16.4-21.99,11.63c-6.36-3.86-5.48-13.48-2.21-20.17c3.26-6.69,8.21-13.27,7.43-20.67
				c-1.1-10.45-14.02-16.35-24.17-13.59s-17.56,11.39-23.25,20.23c-6.65,10.34-11.88,21.59-15.49,33.35
				c-3.35,10.9-1.31,27.52,10.09,27.42c3.4-0.03,6.57-1.81,9.97-2.06c8.77-0.64,15.05,9.25,15,18.04c-0.05,8.79-4.14,17-6.06,25.58
				c-4.44,19.75,2.73,40.06,9.79,59.03c5.31,14.27,15.05,31.41,30.15,29.39c12.91-1.73,20.63-17.35,33.58-18.82
				c8.39-0.95,16.06,4.42,22.65,9.69c75.7,60.44,137.53,146.58,231.25,171.04c5.46,1.43,11.38,2.85,15.04,7.16
				c4.47,5.25,4.08,12.96,3.2,19.79c-7.57,58.56-34.43,114.46-75.43,156.95c-17.6,18.25-38.02,34.47-50.5,56.54
				c-12.49,22.07-14.65,52.82,3.39,70.64c7.17,7.09,27.35,12.71,21.3,20.78c-4.36,5.82-21.29-7.15-27.18-11.42
				c-18.84-13.65-25.26-25.02-39.75-43.21c-9.84-12.35-23.89-20.59-35.03-31.78c-8.26-8.29-14.83-18.11-20.43-28.38
				c-23.53-43.19-29.97-93.92-52.31-137.74c-16.11-31.61-39.99-58.62-57.45-89.51s-28.24-68.74-15.29-101.76
				c6.03-15.38,17-32.19,6.13-55c-9.73-12.9-19.65-26.19-24.1-41.73c-1.83-6.41-2.72-13.15-5.68-19.12
				c-2.47-4.97-6.26-9.17-9.05-13.97c-3.57-6.13-5.41-13.09-7.21-19.95c-5.67-21.57-11.39-43.67-9.4-65.89
				c1.67-18.6,8.66-36.26,15.58-53.6c6.34-15.88,12.67-31.77,19.01-47.65c5.6-14.05,11.24-28.17,18.97-41.18
				c12.01-20.22,28.72-37.18,45.25-53.91c13.85-14.02,27.7-28.03,41.55-42.05c12.33-12.48,24.72-25,38.78-35.48
				c31.62-23.55,51.75-43.28,92.74-58.7c21.17-7.96,46.84-29.07,69.43-30.2c5.84-0.29,11.64,2.2,15.32,6.75
				c1.84,2.27,8.3-0.43,11.17-2.01C781.17,327.3,780.44,326.83,767.87,333.58z"/>
			<path class="st2" d="M772.93,357.69c-2.72,4.02-1.04-3.96-3.07,0.45c-0.62,1.34-1.22,2.86-0.75,4.26c0.59,1.77,2.58,2.6,4.38,3.1
				c10.56,2.96,22.14,2.12,32.17-2.33c3.91-1.74,7.92-4.06,12.17-3.54c6.66,0.82,10.52,8.38,10.56,15.09
				c0.16,22.46-26.61,36.22-31.84,58.06c-2.89,12.04,1.86,25.58,11.64,33.18c2.18,1.69,4.68,3.14,7.43,3.32
				c3.01,0.2,5.9-1.13,8.59-2.51c9.73-4.99,18.91-11.05,27.33-18.03c7.13-5.91,13.88-12.58,22.35-16.34
				c8.46-3.76,19.39-3.89,27,2.98c6.07,3.58,11.31,8.69,17.94,11.09s15.63,0.76,18.16-5.82c2.61-6.79-3.08-13.89-9.01-18.11
				c-5.93-4.22-13.06-8.08-15.22-15.02c-3.5-11.27,8.26-21.57,9.64-33.29c1.46-12.38-9.65-23.48-21.8-26.23
				c-12.15-2.75-24.79,0.78-36.54,4.93c-5.58,1.97-11.94,4.04-17.15,1.25c-2.98-1.6-4.98-4.52-7.44-6.84
				c-6.07-5.71-15.49-7.58-23.28-4.62c-3.32,1.26-6.38,3.32-9.88,3.9c-4.88,0.8-9.71-2.88-14.58-2.09
				C784.99,345.64,774.8,357.63,772.93,357.69z"/>
			<path class="st2" d="M509.46,726.49c-6.85,0.94-13.7,1.88-20.56,2.81c-2.06,3.56,0.15,8.28,3.44,10.75
				c3.29,2.47,7.43,3.49,11.13,5.29c7.07,3.45,12.55,9.99,14.71,17.55c0.76,2.68,1.31,5.75,3.6,7.32c1.54,1.06,3.52,1.17,5.39,1.25
				c3.95,0.16,7.91,0.31,11.86,0.47c5.49,0.22,12.81-1.03,13.4-6.49c0.3-2.76-1.47-5.27-3.15-7.48c-3.08-4.05-6.16-8.1-9.24-12.15
				c-2.71-3.57-5.54-7.24-9.48-9.39c-3.08-1.67-6.66-2.31-9.61-4.18c-3.07-1.95-5.23-5.08-8.3-7.03
				C509.6,723.27,504.75,723.09,509.46,726.49z"/>
			<path class="st2" d="M948.8,477.47c-5.56,4.51-14.44-0.8-17.98,5.42c-8.01,18.35,18.89,19.41,21.47,27.28
				c-6.8-0.21-13.83-1.26-20.24,1.01c-6.41,2.28-11.76,9.49-9.1,15.75c1.16,2.73,3.61,4.74,6.28,6.03
				c13.63,6.61,29.19-3.67,44.31-4.67c1.85-0.12,3.85-0.15,5.32-1.29c1.46-1.13,1.99-3.07,2.43-4.87c1.17-4.76,2.34-9.64,1.79-14.52
				s-3.21-9.81-7.73-11.7c-5.17-2.17-12.32-0.41-15.64-4.93c-2.33-3.18-1.27-7.85-3.25-11.25
				C953.84,475.26,947.54,475.05,948.8,477.47z"/>
			<path class="st2" d="M1375.01,1007.59c-2.6-17.8-22.46,34.04-31.76,50.23c-4.06,7.06-8.11,14.12-12.17,21.18
				c-6.75,11.75-13.72,24.33-13.18,37.88c0.08,2.07,0.55,4.46,2.37,5.45c1.7,0.93,3.81,0.2,5.54-0.68
				c12.85-6.53,20.46-20.12,25.69-33.54c5.23-13.42,9-27.72,17.44-39.39c3.92-5.42,8.92-10.44,10.45-16.96
				C1380.94,1025.24,1375.33,1011.37,1375.01,1007.59z"/>
			<circle class="st3" cx="901.67" cy="845.16" r="537.45"/>
		</g>
		<g>
			<defs>
				<circle id="SVGID_1_" cx="901.67" cy="860.05" r="533.31"/>
			</defs>
			<clipPath id="SVGID_2_">
				<use xlink:href="#SVGID_1_"  style="overflow:visible;"/>
			</clipPath>
			<g class="st4">
				<g>
					<g>
						<g>
							<polygon class="st5" points="62.56,1008.35 57.96,1008.35 53.17,1265.01 62.56,1265.01 71.95,1265.01 67.16,1008.35 							
								"/>
						</g>
						<g>
							<g>
								<path class="st5" d="M72.59,1003.95H52.52c-2.58,0-4.68,2.83-4.68,6.33s2.1,6.33,4.68,6.33h20.07
									c2.58,0,4.68-2.83,4.68-6.33S75.18,1003.95,72.59,1003.95z"/>
							</g>
							<g>
								<g>
									<g>
										<path class="st5" d="M42.49,1008.96c-2.97,0.08-5.86,0.98-8.34,2.61l-57.82,37.95c-1.13,0.74-0.26,2.48,1.01,2.01
											l59.76-21.81c2.01-0.73,3.74-2.07,4.94-3.84c0,0,9.63-12.4,9.88-13.05l-0.68-4.11L42.49,1008.96z"/>
									</g>
									<g>
										<path class="st5" d="M77.18,1014.59c-1.64-1.37-3.66-2.2-5.79-2.36c0,0-15.56-2.14-16.24-2.03l-3.22,2.64l4.58,7.47
											c1.55,2.53,3.78,4.58,6.43,5.92l61.78,31.1c1.2,0.6,2.27-1.02,1.24-1.88L77.18,1014.59z"/>
									</g>
									<g>
										<path class="st5" d="M57.27,924.92c-0.08-1.35-2.02-1.46-2.25-0.13l-10.99,62.66c-0.37,2.11-0.07,4.27,0.85,6.2
											c0,0,5.93,14.54,6.36,15.08l3.9,1.47l4.18-7.7c1.42-2.61,2.08-5.56,1.91-8.53L57.27,924.92z"/>
									</g>
								</g>
							</g>
							<g>
								<ellipse class="st5" cx="52.52" cy="1010.28" rx="4.68" ry="6.33"/>
							</g>
							<path class="st5" d="M52.52,1007.88c-0.98,0-1.77,1.07-1.77,2.4s0.79,2.4,1.77,2.4c0.98,0,1.77-1.07,1.77-2.4
								C54.3,1008.96,53.5,1007.88,52.52,1007.88z"/>
							<g>
								<path class="st5" d="M50.99,1005.33h-1.2c-1.57,0-8.32,2.38-8.29,4.95c0.02,2.37,6.92,4.95,8.29,4.95h1.2
									c1.82,0,3.3-2.22,3.3-4.95C54.3,1007.55,52.82,1005.33,50.99,1005.33z"/>
							</g>
						</g>
					</g>
					<g>
						<g>
							<polygon class="st5" points="171.89,952.22 167.29,952.22 162.5,1208.88 171.89,1208.88 181.27,1208.88 176.49,952.22 
															"/>
						</g>
						<g>
							<g>
								<path class="st5" d="M181.92,947.93h-20.07c-2.58,0-4.68,2.83-4.68,6.33c0,3.5,2.1,6.33,4.68,6.33h20.07
									c2.58,0,4.68-2.83,4.68-6.33C186.6,950.76,184.51,947.93,181.92,947.93z"/>
							</g>
							<g>
								<g>
									<g>
										<path class="st5" d="M151.82,952.94c-2.97,0.08-5.86,0.98-8.34,2.61L85.66,993.5c-1.13,0.74-0.26,2.48,1.01,2.01
											l59.76-21.81c2.01-0.73,3.74-2.07,4.94-3.84c0,0,9.63-12.4,9.88-13.05l-0.68-4.11L151.82,952.94z"/>
									</g>
									<g>
										<path class="st5" d="M186.51,958.57c-1.64-1.37-3.66-2.2-5.79-2.36c0,0-15.56-2.14-16.24-2.03l-3.22,2.64l4.58,7.47
											c1.55,2.53,3.78,4.58,6.43,5.92l61.78,31.1c1.2,0.6,2.27-1.02,1.24-1.88L186.51,958.57z"/>
									</g>
									<g>
										<path class="st5" d="M166.6,868.9c-0.08-1.35-2.02-1.46-2.25-0.13l-10.99,62.66c-0.37,2.11-0.07,4.27,0.85,6.2
											c0,0,5.93,14.54,6.36,15.08l3.9,1.47l4.18-7.7c1.42-2.61,2.08-5.56,1.91-8.53L166.6,868.9z"/>
									</g>
								</g>
							</g>
							<g>
								<ellipse class="st5" cx="161.85" cy="954.26" rx="4.68" ry="6.33"/>
							</g>
							<ellipse class="st5" cx="161.85" cy="954.26" rx="1.77" ry="2.4"/>
							<g>
								<path class="st5" d="M160.32,949.3h-1.2c-1.57,0-8.32,2.38-8.29,4.95c0.02,2.37,6.92,4.95,8.29,4.95h1.2
									c1.82,0,3.3-2.22,3.3-4.95C163.63,951.53,162.14,949.3,160.32,949.3z"/>
							</g>
						</g>
					</g>
					<g>
						<polygon class="st5" points="1284.07,882.36 1280.07,882.36 1275.91,1105.65 1284.07,1105.65 1292.24,1105.65 1288.08,882.36 
													"/>
						<g>
							<path class="st5" d="M1292.8,878.64h-17.46c-2.25,0-4.07,2.47-4.07,5.51c0,3.04,1.82,5.51,4.07,5.51h17.46
								c2.25,0,4.07-2.47,4.07-5.51C1296.87,881.11,1295.05,878.64,1292.8,878.64z"/>
							<g>
								<g>
									<g>
										<path class="st5" d="M1266.61,883c-2.58,0.07-5.1,0.85-7.25,2.27l-50.3,33.02c-0.98,0.64-0.22,2.15,0.88,1.75l51.99-18.98
											c1.75-0.64,3.25-1.81,4.3-3.34c0,0,8.38-10.79,8.59-11.35l-0.59-3.57L1266.61,883z"/>
									</g>
								</g>
								<g>
									<g>
										<path class="st5" d="M1296.79,887.9c-1.43-1.19-3.19-1.91-5.04-2.06c0,0-13.53-1.86-14.13-1.77l-2.8,2.3l3.98,6.5
											c1.35,2.2,3.29,3.99,5.59,5.15l53.75,27.05c1.05,0.53,1.98-0.89,1.08-1.64L1296.79,887.9z"/>
									</g>
								</g>
								<g>
									<g>
										<path class="st5" d="M1279.47,809.88c-0.07-1.17-1.76-1.27-1.96-0.12l-9.56,54.52c-0.32,1.83-0.06,3.72,0.74,5.4
											c0,0,5.16,12.65,5.53,13.12l3.39,1.28l3.64-6.7c1.23-2.27,1.81-4.84,1.66-7.42L1279.47,809.88z"/>
									</g>
								</g>
							</g>
							<ellipse class="st5" cx="1275.34" cy="884.15" rx="4.07" ry="5.51"/>
							<path class="st5" d="M1275.34,882.07c-0.85,0-1.54,0.94-1.54,2.09s0.69,2.09,1.54,2.09s1.54-0.94,1.54-2.09
								S1276.19,882.07,1275.34,882.07z"/>
							<path class="st5" d="M1273.94,879.93l-1.04,0c-1.36,0-7.23,2.09-7.2,4.33c0.03,2.06,6.03,4.3,7.22,4.29l1.04,0
								c1.59,0,2.87-1.94,2.87-4.32C1276.82,881.86,1275.53,879.93,1273.94,879.93z"/>
						</g>
					</g>
					<polygon class="st5" points="298.63,1068.35 226.01,1071.61 214.94,1138.5 159.48,1301.05 548.08,1301.05 548.08,1138.5 
						278.07,1138.5 					"/>
					<path class="st5" d="M399.46,803.67c-0.54,0-1.07,0.03-1.59,0.09c0.05-0.6,0.09-1.2,0.09-1.81c0-11.95-9.48-21.64-21.18-21.64
						c-3.02,0-5.89,0.66-8.5,1.82c-0.62-7.88-7.06-14.08-14.93-14.08c-7.89,0-14.34,6.23-14.93,14.14
						c-2.27-0.73-4.68-1.12-7.18-1.12c-13.25,0-23.99,10.98-23.99,24.52c0,0.44,0.04,0.87,0.07,1.3c-2.05-1.07-4.36-1.68-6.81-1.68
						c-7.71,0-14.06,5.95-14.89,13.61h128.81C414.34,810.43,407.68,803.67,399.46,803.67z"/>
					<g>
						<path class="st5" d="M188.14,1076.01c0,36.96,26.59,66.92,26.59,66.92s26.59-29.96,26.59-66.92
							c0-36.96-26.59-66.92-26.59-66.92S188.14,1039.05,188.14,1076.01z"/>
						<path class="st5" d="M214.73,1072.96c-0.86,0-1.57,0.7-1.57,1.57v113.97c0,0.86,0.7,1.57,1.57,1.57c0.86,0,1.57-0.7,1.57-1.57
							v-113.97C216.3,1073.66,215.59,1072.96,214.73,1072.96z"/>
					</g>
					<g>
						<path class="st5" d="M229.18,1057.13c0,48.54,38.02,87.9,38.02,87.9s38.02-39.35,38.02-87.9
							c0-48.54-38.02-165.37-38.02-165.37S229.18,1008.59,229.18,1057.13z"/>
						<path class="st5" d="M267.19,1040.1c-0.86,0-1.57,0.7-1.57,1.57v218.85c0,0.86,0.7,1.57,1.57,1.57c0.86,0,1.57-0.7,1.57-1.57
							v-218.85C268.76,1040.8,268.06,1040.1,267.19,1040.1z"/>
					</g>
					<path class="st5" d="M710.52,719.85c-23.85,9.75-33.57,18.12-56.77,20.58c-48.79,5.18-45.2,27.67-72.3,43.8
						c-28.67,17.06-78.48-37.47-122.87,28.87c-11.13,16.64-0.73,18.54,3.07,18.62c1.92-0.2,1.43,0.03,0,0
						c-1.73,0.18-5.4,0.7-12.12,2.06c-34.07,6.91-37.99,45.82-37.99,45.82l353.82,49.22V749.4
						C765.37,749.4,731.17,711.4,710.52,719.85z"/>
					<path class="st5" d="M461.65,831.72C463.08,831.75,463.57,831.53,461.65,831.72L461.65,831.72z"/>
					<path class="st5" d="M556.41,964.62c-9.25,0-17.53,4.1-23.28,10.6c-0.54-17.26-14.36-31.09-31.38-31.09
						c-4.74,0-9.22,1.1-13.24,3.02c0.01-0.23,0.03-0.46,0.03-0.7c0-17.74-14.07-32.13-31.43-32.13c-7.08,0-13.59,2.42-18.85,6.46
						c-1.62-16.18-15-28.81-31.27-28.81c-8.04,0-15.35,3.11-20.91,8.19c-4.61-11.88-15.94-20.3-29.21-20.3
						c-16.56,0-30.09,13.09-31.31,29.69c-4.71-2.87-10.19-4.55-16.06-4.55c-17.36,0-31.43,14.38-31.43,32.13v59.6h309.78
						C587.85,979.01,573.78,964.62,556.41,964.62z"/>
					<rect x="1140.11" y="1138.5" class="st5" width="160.53" height="162.55"/>
					<polygon class="st5" points="709.6,1301.05 897.91,1301.05 897.91,1138.5 653.75,1138.5 					"/>
					<polygon class="st5" points="765.37,996.75 854.42,996.75 892.63,1002.39 892.63,791.62 765.37,791.62 					"/>
					<g>
						<polygon class="st5" points="854.42,897.58 930.84,897.58 892.63,791.62 						"/>
						<polygon class="st5" points="892.63,791.62 930.84,897.58 1149,897.58 1110.79,791.62 						"/>
						<g>
							<polygon class="st5" points="909.15,791.62 947.36,897.58 960.78,897.58 922.57,791.62 							"/>
							<polygon class="st5" points="1081.59,791.62 1119.8,897.58 1133.22,897.58 1095.02,791.62 							"/>
							<polygon class="st5" points="943.64,791.62 981.85,897.58 995.27,897.58 957.06,791.62 							"/>
							<polygon class="st5" points="978.12,791.62 1016.34,897.58 1029.76,897.58 991.55,791.62 							"/>
							<polygon class="st5" points="1012.61,791.62 1050.82,897.58 1064.25,897.58 1026.04,791.62 							"/>
							<polygon class="st5" points="1047.1,791.62 1085.31,897.58 1098.74,897.58 1060.53,791.62 							"/>
						</g>
						<rect x="854.42" y="897.58" class="st5" width="76.42" height="209.62"/>
						<rect x="930.84" y="897.58" class="st5" width="218.16" height="209.62"/>
					</g>
					<g>
						<polygon class="st5" points="411.55,861.18 505.62,861.18 458.58,813.1 						"/>
						<polygon class="st5" points="458.58,813.1 505.62,861.18 653.75,861.18 606.71,813.1 						"/>
						<rect x="411.55" y="861.18" class="st5" width="94.07" height="135.57"/>
						<rect x="505.62" y="861.18" class="st5" width="148.13" height="135.57"/>
					</g>
					<g>
						<rect x="990.17" y="941.98" class="st5" width="149.94" height="196.52"/>
						<g>
							<rect x="1140.11" y="941.98" class="st5" width="107.61" height="196.52"/>
							<rect x="1240.66" y="1009.89" class="st5" width="59.98" height="128.61"/>
						</g>
						<g>
							<rect x="1101.31" y="897.58" class="st5" width="94.52" height="44.4"/>
							<g>
								<polygon class="st5" points="1101.31,897.58 1195.82,897.58 1148.56,847.69 								"/>
								<polygon class="st5" points="990.17,897.58 1101.31,897.58 1148.56,847.69 1037.43,847.69 								"/>
							</g>
							<rect x="990.17" y="897.58" class="st5" width="111.13" height="44.4"/>
						</g>
						<g>
							<rect x="1002.89" y="913.13" class="st5" width="14.99" height="19.83"/>
							<rect x="1039.4" y="913.13" class="st5" width="14.99" height="19.83"/>
							<rect x="1075.9" y="913.13" class="st5" width="14.99" height="19.83"/>
						</g>
						<g>
							<rect x="1002.89" y="970.53" class="st5" width="14.99" height="19.83"/>
							<rect x="1039.4" y="970.53" class="st5" width="14.99" height="19.83"/>
							<rect x="1075.9" y="970.53" class="st5" width="14.99" height="19.83"/>
							<rect x="1112.4" y="970.53" class="st5" width="14.99" height="19.83"/>
						</g>
						<g>
							<rect x="1002.89" y="1027.92" class="st5" width="14.99" height="19.83"/>
							<rect x="1039.4" y="1027.92" class="st5" width="14.99" height="19.83"/>
							<rect x="1075.9" y="1027.92" class="st5" width="14.99" height="19.83"/>
							<rect x="1112.4" y="1027.92" class="st5" width="14.99" height="19.83"/>
						</g>
						<g>
							<rect x="1158.12" y="970.53" class="st5" width="14.99" height="19.83"/>
							<rect x="1194.63" y="970.53" class="st5" width="14.99" height="19.83"/>
							<rect x="1158.12" y="1027.92" class="st5" width="14.99" height="19.83"/>
							<rect x="1194.63" y="1027.92" class="st5" width="14.99" height="19.83"/>
							<rect x="1231.13" y="1027.92" class="st5" width="14.99" height="19.83"/>
							<rect x="1267.63" y="1027.92" class="st5" width="14.99" height="19.83"/>
							<rect x="1158.12" y="1085.32" class="st5" width="14.99" height="19.83"/>
							<rect x="1194.63" y="1085.32" class="st5" width="14.99" height="19.83"/>
							<rect x="1231.13" y="1085.32" class="st5" width="14.99" height="19.83"/>
							<rect x="1267.63" y="1085.32" class="st5" width="14.99" height="19.83"/>
						</g>
						<g>
							<rect x="1158.12" y="968.96" class="st5" width="14.99" height="3.13"/>
							<rect x="1194.63" y="968.96" class="st5" width="14.99" height="3.13"/>
							<rect x="1158.12" y="1026.36" class="st5" width="14.99" height="3.13"/>
							<rect x="1194.63" y="1026.36" class="st5" width="14.99" height="3.13"/>
							<rect x="1231.13" y="1026.36" class="st5" width="14.99" height="3.13"/>
							<rect x="1267.63" y="1026.36" class="st5" width="14.99" height="3.13"/>
							<rect x="1158.12" y="1083.75" class="st5" width="14.99" height="3.13"/>
							<rect x="1194.63" y="1083.75" class="st5" width="14.99" height="3.13"/>
							<rect x="1231.13" y="1083.75" class="st5" width="14.99" height="3.13"/>
							<rect x="1267.63" y="1083.75" class="st5" width="14.99" height="3.13"/>
						</g>
					</g>
					<g>
						<rect x="278.07" y="996.75" class="st5" width="215" height="141.75"/>
						<rect x="493.08" y="996.75" class="st5" width="160.67" height="141.75"/>
						<polygon class="st5" points="278.07,996.75 493.08,996.75 573.41,924.66 358.41,924.66 						"/>
						<polygon class="st5" points="493.08,996.75 653.75,996.75 573.41,924.66 						"/>
						<g>
							<polygon class="st5" points="425.32,996.75 465.07,961.08 385.57,961.08 							"/>
							<polygon class="st5" points="345.83,996.75 389.39,1019.33 425.32,996.75 385.57,961.08 							"/>
						</g>
						<g>
							<rect x="523.7" y="1027.29" class="st5" width="7.89" height="8.07"/>
							<rect x="523.7" y="1051.49" class="st5" width="7.89" height="8.07"/>
							<rect x="523.7" y="1075.69" class="st5" width="7.89" height="8.07"/>
							<rect x="523.7" y="1099.9" class="st5" width="7.89" height="8.07"/>
							<rect x="547.38" y="1027.29" class="st5" width="7.89" height="8.07"/>
							<rect x="547.38" y="1051.49" class="st5" width="7.89" height="8.07"/>
							<rect x="547.38" y="1075.69" class="st5" width="7.89" height="8.07"/>
							<rect x="547.38" y="1099.9" class="st5" width="7.89" height="8.07"/>
							<rect x="571.06" y="1027.29" class="st5" width="7.89" height="8.07"/>
							<rect x="571.06" y="1051.49" class="st5" width="7.89" height="8.07"/>
							<rect x="571.06" y="1075.69" class="st5" width="7.89" height="8.07"/>
							<rect x="571.06" y="1099.9" class="st5" width="7.89" height="8.07"/>
							<rect x="594.74" y="1027.29" class="st5" width="7.89" height="8.07"/>
							<rect x="594.74" y="1051.49" class="st5" width="7.89" height="8.07"/>
							<rect x="594.74" y="1075.69" class="st5" width="7.89" height="8.07"/>
							<rect x="594.74" y="1099.9" class="st5" width="7.89" height="8.07"/>
							<rect x="618.43" y="1027.29" class="st5" width="7.89" height="8.07"/>
							<rect x="618.43" y="1051.49" class="st5" width="7.89" height="8.07"/>
							<rect x="618.43" y="1075.69" class="st5" width="7.89" height="8.07"/>
							<rect x="618.43" y="1099.9" class="st5" width="7.89" height="8.07"/>
						</g>
					</g>
					<g>
						<g>
							<rect x="298.52" y="1013.51" class="st5" width="10.1" height="27.76"/>
							<rect x="339.69" y="1013.51" class="st5" width="10.1" height="27.76"/>
							<rect x="380.85" y="1013.51" class="st5" width="10.1" height="27.76"/>
							<rect x="422.01" y="1013.51" class="st5" width="10.1" height="27.76"/>
							<rect x="463.17" y="1013.51" class="st5" width="10.1" height="27.76"/>
						</g>
						<g>
							<rect x="298.52" y="1062.55" class="st5" width="10.1" height="27.76"/>
							<rect x="339.69" y="1062.55" class="st5" width="10.1" height="27.76"/>
							<rect x="380.85" y="1062.55" class="st5" width="10.1" height="27.76"/>
							<rect x="422.01" y="1062.55" class="st5" width="10.1" height="27.76"/>
							<rect x="463.17" y="1062.55" class="st5" width="10.1" height="27.76"/>
						</g>
					</g>
					<g>
						<g>
							<rect x="298.52" y="1011.94" class="st5" width="10.1" height="3.13"/>
							<rect x="339.69" y="1011.94" class="st5" width="10.1" height="3.13"/>
							<rect x="380.85" y="1011.94" class="st5" width="10.1" height="3.13"/>
							<rect x="422.01" y="1011.94" class="st5" width="10.1" height="3.13"/>
							<rect x="463.17" y="1011.94" class="st5" width="10.1" height="3.13"/>
						</g>
						<g>
							<rect x="298.52" y="1060.98" class="st5" width="10.1" height="3.13"/>
							<rect x="339.69" y="1060.98" class="st5" width="10.1" height="3.13"/>
							<rect x="380.85" y="1060.98" class="st5" width="10.1" height="3.13"/>
							<rect x="422.01" y="1060.98" class="st5" width="10.1" height="3.13"/>
							<rect x="463.17" y="1060.98" class="st5" width="10.1" height="3.13"/>
						</g>
					</g>
					<g>
						<g>
							<g>
								<polygon class="st5" points="653.75,791.62 765.37,791.62 709.56,746.3 								"/>
								<polygon class="st5" points="709.56,746.3 765.37,791.62 765.37,740.43 709.56,695.12 								"/>
								<polygon class="st5" points="653.75,791.62 709.56,746.3 709.56,695.12 653.75,740.43 								"/>
								<rect x="653.75" y="791.62" class="st5" width="111.62" height="205.13"/>
							</g>
						</g>
						<g>
							<g>
								<g>
									<rect x="669.43" y="820.27" class="st5" width="6.17" height="6.31"/>
								</g>
								<g>
									<rect x="669.43" y="839.2" class="st5" width="6.17" height="6.31"/>
								</g>
								<g>
									<rect x="669.43" y="858.13" class="st5" width="6.17" height="6.31"/>
								</g>
								<g>
									<rect x="687.95" y="801.34" class="st5" width="6.17" height="6.31"/>
								</g>
								<g>
									<rect x="687.95" y="820.27" class="st5" width="6.17" height="6.31"/>
								</g>
								<g>
									<rect x="687.95" y="839.2" class="st5" width="6.17" height="6.31"/>
								</g>
								<g>
									<rect x="687.95" y="858.13" class="st5" width="6.17" height="6.31"/>
								</g>
								<g>
									<rect x="706.47" y="782.41" class="st5" width="6.17" height="6.31"/>
								</g>
								<g>
									<rect x="706.47" y="801.34" class="st5" width="6.17" height="6.31"/>
								</g>
								<g>
									<rect x="706.47" y="820.27" class="st5" width="6.17" height="6.31"/>
								</g>
								<g>
									<rect x="706.47" y="839.2" class="st5" width="6.17" height="6.31"/>
								</g>
								<g>
									<rect x="706.47" y="858.13" class="st5" width="6.17" height="6.31"/>
								</g>
								<g>
									<rect x="724.99" y="801.34" class="st5" width="6.17" height="6.31"/>
								</g>
								<g>
									<rect x="724.99" y="820.27" class="st5" width="6.17" height="6.31"/>
								</g>
								<g>
									<rect x="724.99" y="839.2" class="st5" width="6.17" height="6.31"/>
								</g>
								<g>
									<rect x="724.99" y="858.13" class="st5" width="6.17" height="6.31"/>
								</g>
								<g>
									<rect x="743.51" y="820.27" class="st5" width="6.17" height="6.31"/>
								</g>
								<g>
									<rect x="743.51" y="839.2" class="st5" width="6.17" height="6.31"/>
								</g>
								<g>
									<rect x="743.51" y="858.13" class="st5" width="6.17" height="6.31"/>
								</g>
							</g>
							<g>
								<g>
									<rect x="669.43" y="877.06" class="st5" width="6.17" height="6.31"/>
								</g>
								<g>
									<rect x="687.95" y="877.06" class="st5" width="6.17" height="6.31"/>
								</g>
								<g>
									<rect x="706.47" y="877.06" class="st5" width="6.17" height="6.31"/>
								</g>
								<g>
									<rect x="724.99" y="877.06" class="st5" width="6.17" height="6.31"/>
								</g>
								<g>
									<rect x="743.51" y="877.06" class="st5" width="6.17" height="6.31"/>
								</g>
							</g>
						</g>
					</g>
					<polygon class="st5" points="653.75,996.75 653.75,1138.5 991.72,1138.5 854.42,996.75 					"/>
					<g>
						<path class="st5" d="M805.52,1020.64c0,43.06,30.97,77.96,30.97,77.96s30.97-34.9,30.97-77.96s-30.97-77.96-30.97-77.96
							S805.52,977.59,805.52,1020.64z"/>
						<path class="st5" d="M836.49,1005.36c-0.86,0-1.57,0.7-1.57,1.57v103.43c0,0.86,0.7,1.57,1.57,1.57c0.86,0,1.57-0.7,1.57-1.57
							v-103.43C838.06,1006.06,837.36,1005.36,836.49,1005.36z"/>
						<path class="st5" d="M846.8,1024.83l-10.3,10.53l-10.3-10.53c-0.6-0.62-1.6-0.63-2.21-0.03s-0.63,1.6-0.02,2.21l11.42,11.68
							c0.29,0.3,0.7,0.47,1.12,0.47s0.82-0.17,1.12-0.47l11.42-11.68c0.61-0.62,0.6-1.61-0.02-2.21
							C848.39,1024.2,847.4,1024.21,846.8,1024.83z"/>
					</g>
					<path class="st5" d="M715.69,1023.41c0,38.03,27.36,68.86,27.36,68.86s27.36-30.83,27.36-68.86
						c0-38.03-27.36-68.86-27.36-68.86S715.69,985.37,715.69,1023.41z"/>
					<path class="st5" d="M756.99,992.15c0,43.06,30.97,77.96,30.97,77.96s30.97-34.9,30.97-77.96c0-43.06-30.97-77.96-30.97-77.96
						S756.99,949.09,756.99,992.15z"/>
					<path class="st5" d="M787.96,981.08c-0.86,0-1.57,0.7-1.57,1.57v130.87c0,0.86,0.7,1.57,1.57,1.57s1.57-0.7,1.57-1.57V982.65
						C789.53,981.79,788.83,981.08,787.96,981.08z"/>
					<path class="st5" d="M743.05,1009.58c-0.86,0-1.57,0.7-1.57,1.57v100.27c0,0.86,0.7,1.57,1.57,1.57c0.86,0,1.57-0.7,1.57-1.57
						v-100.27C744.61,1010.28,743.91,1009.58,743.05,1009.58z"/>
					<path class="st5" d="M732.21,1069.72c-44.92-30.08-78.45-16.11-78.45-16.11v84.89h336.43c0,0-62.81-57.7-110.83-57.7
						C811.04,1080.8,794.01,1111.11,732.21,1069.72z"/>
					<path class="st5" d="M905.68,1115.63c-44.65-7.17-69.32,17.08-90.4,31.19c-21.59,14.46-27.17,2.3-50.15,0.53
						c-37.86-2.91-33.8,25.66-58.23,23.35c-21.81-2.06-46.99-40.96-76.4-1.33l25.58,30.44l294,67.8l79.51,9.5
						C1029.59,1277.11,954.66,1123.5,905.68,1115.63z"/>
					<g>
						<path class="st5" d="M679.01,1108.85l-26.57,108.9l72.8,7.91l-28.2-116.79C694.71,1099.26,681.35,1099.24,679.01,1108.85z"/>
						<path class="st5" d="M688.06,1128.31c-0.86,0-1.57,0.7-1.57,1.57v68.83c0,0.86,0.7,1.57,1.57,1.57s1.57-0.7,1.57-1.57v-68.83
							C689.63,1129.02,688.93,1128.31,688.06,1128.31z"/>
						<path class="st5" d="M700.86,1160.45l-11.23,11.48v-11.76c0-0.3-0.08-0.59-0.24-0.84l-9.88-15.6
							c-0.46-0.73-1.43-0.95-2.16-0.49c-0.73,0.46-0.95,1.43-0.49,2.16l9.64,15.22v15.15c0,0.64,0.39,1.21,0.97,1.45
							c0.19,0.08,0.39,0.12,0.59,0.12c0.41,0,0.82-0.17,1.12-0.47l13.92-14.23c0.6-0.62,0.59-1.61-0.02-2.21
							C702.45,1159.82,701.46,1159.83,700.86,1160.45z"/>
					</g>
					<g>
						<path class="st5" d="M722.37,1104.89l-26.57,108.9l72.8,7.91l-28.2-116.79C738.08,1095.3,724.72,1095.28,722.37,1104.89z"/>
						<path class="st5" d="M731.43,1124.36c-0.86,0-1.57,0.7-1.57,1.57v98.95c0,0.86,0.7,1.57,1.57,1.57c0.86,0,1.57-0.7,1.57-1.57
							v-98.95C732.99,1125.06,732.3,1124.36,731.43,1124.36z"/>
						<path class="st5" d="M744.22,1156.49l-11.23,11.48v-11.76c0-0.3-0.08-0.59-0.24-0.84l-9.88-15.6
							c-0.46-0.73-1.43-0.95-2.16-0.49c-0.73,0.46-0.95,1.43-0.49,2.16l9.64,15.22v15.15c0,0.64,0.39,1.21,0.97,1.45
							c0.19,0.08,0.39,0.12,0.59,0.12c0.41,0,0.82-0.17,1.12-0.47l13.92-14.22c0.6-0.62,0.59-1.61-0.03-2.21
							C745.82,1155.86,744.83,1155.87,744.22,1156.49z"/>
					</g>
					<path class="st5" d="M836.49,1262.86c-27.88,5.28-46.93-46.74-70.73-56.47c-18.07-7.39-27.36,10.55-41.82-8.44
						c-14.45-19-51.63-41.16-76.93-33.25l30.98,124.01l212.19-7.39l-8.78-28.5C881.41,1252.84,864.37,1257.59,836.49,1262.86z"/>
					<path class="st5" d="M897.91,1138.5c-44.38,8.79-41.14,36.74-56.25,57.34c-15.49,21.11-24.78,11.61-46.98,17.94
						c-36.57,10.43-23.23,35.89-46.98,42.22c-21.19,5.65-57.82-22.16-72.28,25.33l34.19,19.72h200.26l35.09-81.28l12.78-49.72
						C957.72,1170.06,946.59,1128.86,897.91,1138.5z"/>
					<g>
						<g>
							<g>
								<polygon class="st5" points="548.08,1138.5 603.94,1201.87 709.6,1201.87 653.75,1138.5 								"/>
								<rect x="603.94" y="1201.87" class="st5" width="105.66" height="99.19"/>
							</g>
							<rect x="548.08" y="1201.87" class="st5" width="55.85" height="99.19"/>
							<polygon class="st5" points="548.08,1201.87 603.94,1201.87 548.08,1138.5 							"/>
						</g>
						<g>
							<rect x="645.85" y="1226.65" class="st5" width="22.72" height="15.95"/>
							<rect x="645.85" y="1263.17" class="st5" width="22.72" height="15.95"/>
						</g>
						<g>
							<rect x="645.85" y="1241.03" class="st5" width="22.72" height="3.13"/>
							<rect x="645.85" y="1277.55" class="st5" width="22.72" height="3.13"/>
						</g>
					</g>
					<g>
						<polygon class="st5" points="897.91,1138.5 991.98,1138.5 944.95,1090.43 						"/>
						<polygon class="st5" points="944.95,1090.43 991.98,1138.5 1140.11,1138.5 1093.08,1090.43 						"/>
						<rect x="897.91" y="1138.5" class="st5" width="94.07" height="162.55"/>
						<rect x="991.98" y="1138.5" class="st5" width="148.13" height="162.55"/>
						<g>
							<g>
								<g>
									<rect x="1007.4" y="1155.81" class="st5" width="6.17" height="6.31"/>
								</g>
								<g>
									<rect x="1007.4" y="1174.74" class="st5" width="6.17" height="6.31"/>
								</g>
								<g>
									<rect x="1007.4" y="1193.67" class="st5" width="6.17" height="6.31"/>
								</g>
								<g>
									<rect x="1007.4" y="1212.6" class="st5" width="6.17" height="6.31"/>
								</g>
								<g>
									<rect x="1007.4" y="1231.53" class="st5" width="6.17" height="6.31"/>
								</g>
								<g>
									<rect x="1025.92" y="1155.81" class="st5" width="6.17" height="6.31"/>
								</g>
								<g>
									<rect x="1025.92" y="1174.74" class="st5" width="6.17" height="6.31"/>
								</g>
								<g>
									<rect x="1025.92" y="1193.67" class="st5" width="6.17" height="6.31"/>
								</g>
								<g>
									<rect x="1025.92" y="1212.6" class="st5" width="6.17" height="6.31"/>
								</g>
								<g>
									<rect x="1025.92" y="1231.53" class="st5" width="6.17" height="6.31"/>
								</g>
								<g>
									<rect x="1044.44" y="1155.81" class="st5" width="6.17" height="6.31"/>
								</g>
								<g>
									<rect x="1044.44" y="1174.74" class="st5" width="6.17" height="6.31"/>
								</g>
								<g>
									<rect x="1044.44" y="1193.67" class="st5" width="6.17" height="6.31"/>
								</g>
								<g>
									<rect x="1044.44" y="1212.6" class="st5" width="6.17" height="6.31"/>
								</g>
								<g>
									<rect x="1044.44" y="1231.53" class="st5" width="6.17" height="6.31"/>
								</g>
								<g>
									<rect x="1062.96" y="1155.81" class="st5" width="6.17" height="6.31"/>
								</g>
								<g>
									<rect x="1062.96" y="1174.74" class="st5" width="6.17" height="6.31"/>
								</g>
								<g>
									<rect x="1062.96" y="1193.67" class="st5" width="6.17" height="6.31"/>
								</g>
								<g>
									<rect x="1062.96" y="1212.6" class="st5" width="6.17" height="6.31"/>
								</g>
								<g>
									<rect x="1062.96" y="1231.53" class="st5" width="6.17" height="6.31"/>
								</g>
								<g>
									<rect x="1081.48" y="1155.81" class="st5" width="6.17" height="6.31"/>
								</g>
								<g>
									<rect x="1081.48" y="1174.74" class="st5" width="6.17" height="6.31"/>
								</g>
								<g>
									<rect x="1081.48" y="1193.67" class="st5" width="6.17" height="6.31"/>
								</g>
								<g>
									<rect x="1081.48" y="1212.6" class="st5" width="6.17" height="6.31"/>
								</g>
								<g>
									<rect x="1081.48" y="1231.53" class="st5" width="6.17" height="6.31"/>
								</g>
								<g>
									<rect x="1100" y="1155.81" class="st5" width="6.17" height="6.31"/>
								</g>
								<g>
									<rect x="1100" y="1174.74" class="st5" width="6.17" height="6.31"/>
								</g>
								<g>
									<rect x="1100" y="1193.67" class="st5" width="6.17" height="6.31"/>
								</g>
								<g>
									<rect x="1100" y="1212.6" class="st5" width="6.17" height="6.31"/>
								</g>
								<g>
									<rect x="1100" y="1231.53" class="st5" width="6.17" height="6.31"/>
								</g>
								<g>
									<rect x="1118.52" y="1155.81" class="st5" width="6.17" height="6.31"/>
								</g>
								<g>
									<rect x="1118.52" y="1174.74" class="st5" width="6.17" height="6.31"/>
								</g>
								<g>
									<rect x="1118.52" y="1193.67" class="st5" width="6.17" height="6.31"/>
								</g>
								<g>
									<rect x="1118.52" y="1212.6" class="st5" width="6.17" height="6.31"/>
								</g>
								<g>
									<rect x="1118.52" y="1231.53" class="st5" width="6.17" height="6.31"/>
								</g>
							</g>
							<g>
								<g>
									<rect x="1007.4" y="1250.46" class="st5" width="6.17" height="6.31"/>
								</g>
								<g>
									<rect x="1025.92" y="1250.46" class="st5" width="6.17" height="6.31"/>
								</g>
								<g>
									<rect x="1044.44" y="1250.46" class="st5" width="6.17" height="6.31"/>
								</g>
								<g>
									<rect x="1062.96" y="1250.46" class="st5" width="6.17" height="6.31"/>
								</g>
								<g>
									<rect x="1081.48" y="1250.46" class="st5" width="6.17" height="6.31"/>
								</g>
								<g>
									<rect x="1100" y="1250.46" class="st5" width="6.17" height="6.31"/>
								</g>
								<g>
									<rect x="1118.52" y="1250.46" class="st5" width="6.17" height="6.31"/>
								</g>
							</g>
						</g>
						<g>
							<polygon class="st5" points="1076.23,1090.43 1123.27,1138.5 1127.97,1138.5 1080.93,1090.43 							"/>
							<polygon class="st5" points="1056.38,1090.43 1103.41,1138.5 1108.11,1138.5 1061.08,1090.43 							"/>
							<polygon class="st5" points="1036.52,1090.43 1083.55,1138.5 1088.25,1138.5 1041.22,1090.43 							"/>
							<polygon class="st5" points="1016.66,1090.43 1063.7,1138.5 1068.39,1138.5 1021.36,1090.43 							"/>
							<polygon class="st5" points="996.8,1090.43 1043.84,1138.5 1048.54,1138.5 1001.5,1090.43 							"/>
							<polygon class="st5" points="976.95,1090.43 1023.98,1138.5 1028.68,1138.5 981.64,1090.43 							"/>
							<polygon class="st5" points="957.09,1090.43 1004.12,1138.5 1008.82,1138.5 961.79,1090.43 							"/>
						</g>
					</g>
					<g>
						<path class="st5" d="M296.66,1162.24c0,36.96,26.59,66.92,26.59,66.92s26.59-29.96,26.59-66.92
							c0-36.96-26.59-66.92-26.59-66.92S296.66,1125.28,296.66,1162.24z"/>
						<path class="st5" d="M323.25,1148.89c-0.86,0-1.57,0.7-1.57,1.57v88.78c0,0.86,0.7,1.57,1.57,1.57s1.57-0.7,1.57-1.57v-88.78
							C324.81,1149.59,324.11,1148.89,323.25,1148.89z"/>
					</g>
					<g>
						<path class="st5" d="M412.05,1170.15c0,36.96,26.59,66.92,26.59,66.92s26.59-29.96,26.59-66.92
							c0-36.96-26.59-66.92-26.59-66.92S412.05,1133.19,412.05,1170.15z"/>
						<path class="st5" d="M438.64,1167.1c-0.86,0-1.57,0.7-1.57,1.57v88.78c0,0.86,0.7,1.57,1.57,1.57s1.57-0.7,1.57-1.57v-88.78
							C440.2,1167.8,439.5,1167.1,438.64,1167.1z"/>
					</g>
					<g>
						<path class="st5" d="M454.65,1165.01c0,48.54,38.02,87.9,38.02,87.9s38.02-39.35,38.02-87.9s-38.02-87.9-38.02-87.9
							S454.65,1116.46,454.65,1165.01z"/>
						<path class="st5" d="M492.66,1147.97c-0.86,0-1.57,0.7-1.57,1.57v116.62c0,0.86,0.7,1.57,1.57,1.57s1.57-0.7,1.57-1.57
							v-116.62C494.23,1148.67,493.53,1147.97,492.66,1147.97z"/>
					</g>
					<path class="st5" d="M513.92,1282.31c-23.75-4.3-10.41-21.61-46.98-28.7c-22.2-4.3-38.86,11.49-58.05,2.69
						c-26.11-11.97-35.72-21.76-80.5-21.76c-28.28,0-100.08,2.18-126.15,66.51h75.83h270.02v-20.61
						C535.85,1281.22,523.35,1284.02,513.92,1282.31z"/>
					<path class="st5" d="M1001.96,764.31c-7.86,0-14.9,3.49-19.79,9.01c-0.46-14.67-12.21-26.42-26.67-26.42
						c-4.03,0-7.83,0.94-11.26,2.57c0-0.2,0.03-0.39,0.03-0.59c0-15.08-11.96-27.31-26.72-27.31c-6.02,0-11.55,2.06-16.02,5.49
						c-1.38-13.76-12.75-24.49-26.58-24.49c-6.83,0-13.05,2.64-17.77,6.96c-3.92-10.1-13.55-17.25-24.82-17.25
						c-14.07,0-25.58,11.13-26.62,25.24c-4-2.44-8.66-3.87-13.65-3.87c-14.76,0-26.72,12.23-26.72,27.31v50.66h263.31
						C1028.68,776.54,1016.72,764.31,1001.96,764.31z"/>
					<path class="st5" d="M1487.84,891.6c-4.8,0-9.22,1.64-12.79,4.38c-1.1-10.98-10.18-19.54-21.21-19.54
						c-5.45,0-10.42,2.11-14.19,5.55c-3.13-8.06-10.81-13.77-19.82-13.77c-11.23,0-20.42,8.88-21.24,20.15
						c-3.19-1.95-6.91-3.09-10.9-3.09c-11.78,0-21.33,9.76-21.33,21.8v0.72h142.06C1506.01,898.47,1497.72,891.6,1487.84,891.6z"/>
					<g>
						<circle class="st5" cx="388.89" cy="699.95" r="28.76"/>
						<circle class="st5" cx="388.89" cy="699.95" r="8.38"/>
					</g>
					<path class="st5" d="M966.15,667.29l-3.07,3.14l-3.07-3.14c-0.61-0.62-1.6-0.63-2.21-0.02c-0.62,0.6-0.63,1.6-0.02,2.21
						l4.19,4.29c0.29,0.3,0.7,0.47,1.12,0.47c0.42,0,0.82-0.17,1.12-0.47l4.19-4.29c0.6-0.62,0.6-1.61-0.02-2.21
						C967.75,666.66,966.76,666.67,966.15,667.29z"/>
					<path class="st5" d="M1086.88,699.92l-3.07,3.14l-3.07-3.14c-0.6-0.62-1.6-0.63-2.21-0.02c-0.62,0.6-0.63,1.6-0.02,2.21
						l4.19,4.29c0.29,0.3,0.7,0.47,1.12,0.47s0.82-0.17,1.12-0.47l4.19-4.29c0.6-0.62,0.6-1.61-0.03-2.21
						C1088.48,699.29,1087.48,699.3,1086.88,699.92z"/>
					<path class="st5" d="M1209.24,820.64l-3.07,3.14l-3.07-3.14c-0.6-0.62-1.6-0.63-2.21-0.02c-0.62,0.6-0.63,1.6-0.02,2.21
						l4.19,4.29c0.29,0.3,0.7,0.47,1.12,0.47c0.42,0,0.82-0.17,1.12-0.47l4.19-4.29c0.6-0.62,0.6-1.61-0.02-2.21
						C1210.83,820.01,1209.84,820.03,1209.24,820.64z"/>
					<path class="st5" d="M708.94,629.77l-3.07,3.14l-3.07-3.14c-0.61-0.62-1.6-0.63-2.21-0.02c-0.62,0.6-0.63,1.6-0.02,2.21
						l4.19,4.29c0.29,0.3,0.7,0.47,1.12,0.47c0.42,0,0.82-0.17,1.12-0.47l4.19-4.29c0.6-0.62,0.59-1.61-0.02-2.21
						C710.53,629.14,709.54,629.15,708.94,629.77z"/>
					<path class="st5" d="M694.76,650.05l-3.07,3.14l-3.07-3.14c-0.6-0.62-1.6-0.63-2.21-0.02s-0.63,1.6-0.02,2.21l4.19,4.29
						c0.29,0.3,0.7,0.47,1.12,0.47c0.42,0,0.82-0.17,1.12-0.47l4.19-4.29c0.6-0.62,0.59-1.61-0.02-2.21
						C696.36,649.42,695.37,649.43,694.76,650.05z"/>
					<path class="st5" d="M659.44,685.21l-3.07,3.14l-3.08-3.14c-0.6-0.62-1.6-0.63-2.21-0.02c-0.62,0.6-0.63,1.6-0.03,2.21
						l4.19,4.29c0.29,0.3,0.7,0.47,1.12,0.47c0.42,0,0.82-0.17,1.12-0.47l4.19-4.29c0.6-0.62,0.59-1.61-0.02-2.21
						C661.04,684.58,660.05,684.6,659.44,685.21z"/>
					<path class="st5" d="M223.24,898.35l-3.07,3.14l-3.07-3.14c-0.6-0.62-1.6-0.63-2.21-0.02c-0.62,0.61-0.63,1.6-0.02,2.21
						l4.19,4.29c0.29,0.3,0.7,0.47,1.12,0.47s0.82-0.17,1.12-0.47l4.19-4.29c0.6-0.62,0.59-1.61-0.02-2.21
						C224.84,897.72,223.85,897.73,223.24,898.35z"/>
					<path class="st5" d="M1116.94,727.14l-3.07,3.14l-3.07-3.14c-0.61-0.62-1.6-0.63-2.21-0.02c-0.62,0.6-0.63,1.6-0.03,2.21
						l4.19,4.29c0.29,0.3,0.7,0.47,1.12,0.47s0.82-0.17,1.12-0.47l4.19-4.29c0.6-0.62,0.6-1.61-0.03-2.21
						C1118.54,726.51,1117.55,726.52,1116.94,727.14z"/>
					<path class="st5" d="M559.08,695.26c-4.16,0-8.12,0.91-11.7,2.51c-0.85-10.86-9.72-19.4-20.57-19.4
						c-10.87,0-19.76,8.59-20.57,19.48c-3.12-1-6.44-1.54-9.89-1.54c-15.86,0-29.1,11.43-32.29,26.66h124.09
						C587.09,707.49,574.5,695.26,559.08,695.26z"/>
					<path class="st5" d="M1282.26,733.08c-4.93,0-9.61,1.07-13.86,2.98c-1.01-12.86-11.51-22.97-24.35-22.97
						c-12.87,0-23.4,10.17-24.36,23.07c-3.7-1.18-7.63-1.83-11.71-1.83c-18.78,0-34.45,13.53-38.24,31.57h146.93
						C1315.43,747.56,1300.52,733.08,1282.26,733.08z"/>
					<path class="st5" d="M245.28,757.65c-3.92,0-7.63,0.85-11,2.36c-0.8-10.21-9.14-18.24-19.34-18.24
						c-10.22,0-18.57,8.07-19.34,18.32c-2.94-0.94-6.06-1.45-9.3-1.45c-14.91,0-27.36,10.74-30.36,25.06H272.6
						C271.61,769.15,259.77,757.65,245.28,757.65z"/>
					<g>
						<polygon class="st5" points="1382.82,935.07 1376.63,935.07 1370.18,1280.6 1382.82,1280.6 1395.46,1280.6 1389.02,935.07 
													"/>
						<g>
							<path class="st5" d="M1396.34,929.06h-27.03c-3.48,0-6.3,3.82-6.3,8.53c0,4.71,2.82,8.53,6.3,8.53h27.03
								c3.48,0,6.3-3.82,6.3-8.53C1402.64,932.87,1399.82,929.06,1396.34,929.06z"/>
							<g>
								<g>
									<g>
										<path class="st5" d="M1355.79,935.8c-4,0.1-7.89,1.32-11.23,3.52l-77.87,51.12c-1.52,1-0.34,3.34,1.36,2.71l80.48-29.38
											c2.7-0.99,5.03-2.79,6.66-5.17c0,0,12.97-16.71,13.31-17.57l-0.91-5.54L1355.79,935.8z"/>
									</g>
								</g>
								<g>
									<g>
										<path class="st5" d="M1402.51,943.39c-2.21-1.85-4.93-2.96-7.8-3.18c0,0-20.95-2.88-21.87-2.74l-4.33,3.56l6.17,10.06
											c2.09,3.41,5.09,6.17,8.66,7.97l83.2,41.88c1.62,0.82,3.06-1.37,1.67-2.54L1402.51,943.39z"/>
									</g>
								</g>
								<g>
									<g>
										<path class="st5" d="M1375.7,822.62c-0.1-1.81-2.72-1.96-3.03-0.18l-14.8,84.39c-0.5,2.83-0.1,5.75,1.14,8.35
											c0,0,7.98,19.58,8.57,20.31l5.25,1.97l5.63-10.37c1.91-3.51,2.8-7.49,2.57-11.49L1375.7,822.62z"/>
									</g>
								</g>
							</g>
							<path class="st5" d="M1369.31,929.06c-3.48,0-6.3,3.82-6.3,8.53c0,4.71,2.82,8.53,6.3,8.53c3.48,0,6.3-3.82,6.3-8.53
								C1375.61,932.87,1372.79,929.06,1369.31,929.06z"/>
							<path class="st5" d="M1369.31,934.35c-1.32,0-2.39,1.45-2.39,3.23c0,1.78,1.07,3.23,2.39,3.23c1.32,0,2.39-1.45,2.39-3.23
								C1371.69,935.8,1370.63,934.35,1369.31,934.35z"/>
							<path class="st5" d="M1367.28,930.82l-1.62,0c-2.11,0-11.2,3.23-11.15,6.69c0.04,3.2,9.33,6.65,11.17,6.65l1.62,0
								c2.46-0.01,4.44-3,4.43-6.68S1369.74,930.81,1367.28,930.82z"/>
						</g>
					</g>
					<path class="st5" d="M1447.73,1252.06c-1.71,0-3.4,0.14-5.07,0.31c0.16-1.91,0.29-3.81,0.29-5.76
						c0-38.13-30.25-69.04-67.56-69.04c-9.65,0-18.82,2.11-27.12,5.83c-1.97-25.15-22.39-44.93-47.65-44.93v162.41h194.94
						C1495.56,1274.06,1474.15,1252.06,1447.73,1252.06z"/>
					<path class="st5" d="M52.33,1228.5c-5.12-2.3-10.76-3.59-16.71-3.59c-23,0-41.65,19.06-41.65,42.57c0,1.2,0.08,2.39,0.17,3.56
						c-1.03-0.11-2.07-0.24-3.12-0.24c-16.29,0-29.49,13.54-29.49,30.07h216.25l61.98-87.18L81.7,1200.76
						C66.21,1200.76,53.54,1213,52.33,1228.5z"/>
					<g>
						<g>
							<rect x="1181.89" y="1242.5" class="st5" width="7.7" height="56.78"/>
						</g>
						<g>
							<rect x="1269.31" y="1242.5" class="st5" width="7.7" height="56.78"/>
						</g>
						<path class="st5" d="M1192.87,1295.8h-14.27c-2.92,0-5.28,2.36-5.28,5.28v1.05h24.84v-1.05
							C1198.16,1298.17,1195.79,1295.8,1192.87,1295.8z"/>
						<path class="st5" d="M1280.29,1295.8h-14.27c-2.92,0-5.28,2.36-5.28,5.28v1.05h24.84v-1.05
							C1285.58,1298.17,1283.21,1295.8,1280.29,1295.8z"/>
						<g>
							<polygon class="st5" points="1158.18,1249.86 1292.39,1249.86 1318.02,1164.23 1183.81,1164.23 							"/>
							<g>
								<polygon class="st5" points="1179.89,1203.1 1214.34,1203.1 1223.62,1172.12 1189.17,1172.12 								"/>
								<g>
									<polygon class="st5" points="1168.26,1241.98 1202.7,1241.98 1211.98,1210.99 1177.53,1210.99 									"/>
								</g>
							</g>
							<polygon class="st5" points="1222.06,1203.1 1256.5,1203.1 1265.78,1172.12 1231.33,1172.12 							"/>
							<polygon class="st5" points="1210.42,1241.98 1244.87,1241.98 1254.14,1210.99 1219.7,1210.99 							"/>
							<g>
								<polygon class="st5" points="1264.22,1203.1 1298.67,1203.1 1307.95,1172.12 1273.5,1172.12 								"/>
								<g>
									<polygon class="st5" points="1252.58,1241.98 1287.03,1241.98 1296.31,1210.99 1261.86,1210.99 									"/>
								</g>
							</g>
							<polygon class="st5" points="1158.18,1249.86 1162.26,1257.47 1296.47,1257.47 1292.39,1249.86 							"/>
							<polygon class="st5" points="1292.39,1249.86 1296.47,1257.47 1322.1,1171.85 1318.02,1164.23 							"/>
						</g>
					</g>
					<g>
						<g>
							<path class="st5" d="M1340.1,1206.29c0,33.62,24.18,60.87,24.18,60.87s24.18-27.25,24.18-60.87
								c0-33.62-24.18-60.87-24.18-60.87S1340.1,1172.68,1340.1,1206.29z"/>
							<rect x="1362.71" y="1198.88" class="st5" width="3.13" height="102.17"/>
						</g>
						<g>
							<path class="st5" d="M1400.63,1206.29c0,33.62,24.18,60.87,24.18,60.87s24.18-27.25,24.18-60.87
								c0-33.62-24.18-60.87-24.18-60.87S1400.63,1172.68,1400.63,1206.29z"/>
							<rect x="1423.24" y="1198.88" class="st5" width="3.13" height="102.17"/>
						</g>
						<g>
							<path class="st5" d="M1461.16,1206.29c0,33.62,24.18,60.87,24.18,60.87s24.18-27.25,24.18-60.87
								c0-33.62-24.18-60.87-24.18-60.87S1461.16,1172.68,1461.16,1206.29z"/>
							<rect x="1483.77" y="1198.88" class="st5" width="3.13" height="102.17"/>
						</g>
					</g>
					<g>
						<g>
							<rect x="99.36" y="1244.99" class="st5" width="7.24" height="53.37"/>
						</g>
						<g>
							<rect x="181.54" y="1244.99" class="st5" width="7.24" height="53.37"/>
						</g>
						<g>
							<polygon class="st5" points="76.12,1251.91 202.27,1251.91 237.35,1134.95 111.19,1134.95 							"/>
							<g>
								<g>
									<polygon class="st5" points="107.5,1171.49 139.88,1171.49 148.61,1142.36 116.23,1142.36 									"/>
									<g>
										<polygon class="st5" points="96.56,1208.03 128.95,1208.03 137.67,1178.9 105.29,1178.9 										"/>
									</g>
								</g>
								<polygon class="st5" points="147.14,1171.49 179.52,1171.49 188.24,1142.36 155.86,1142.36 								"/>
								<polygon class="st5" points="136.2,1208.03 168.58,1208.03 177.3,1178.9 144.92,1178.9 								"/>
								<g>
									<polygon class="st5" points="186.77,1171.49 219.15,1171.49 227.87,1142.36 195.49,1142.36 									"/>
									<g>
										<polygon class="st5" points="175.83,1208.03 208.21,1208.03 216.93,1178.9 184.55,1178.9 										"/>
									</g>
								</g>
							</g>
							<g>
								<polygon class="st5" points="85.65,1244.57 118.03,1244.57 126.75,1215.44 94.37,1215.44 								"/>
							</g>
							<polygon class="st5" points="125.29,1244.57 157.67,1244.57 166.39,1215.44 134.01,1215.44 							"/>
							<g>
								<polygon class="st5" points="164.92,1244.57 197.3,1244.57 206.02,1215.44 173.64,1215.44 								"/>
							</g>
							<polygon class="st5" points="76.12,1251.91 79.96,1259.06 206.11,1259.06 202.27,1251.91 							"/>
							<polygon class="st5" points="202.27,1251.91 206.11,1259.06 241.18,1142.11 237.35,1134.95 							"/>
						</g>
						<path class="st5" d="M109.69,1295.1H96.28c-2.74,0-4.96,2.22-4.96,4.96v0.99h23.35v-0.99
							C114.65,1297.32,112.43,1295.1,109.69,1295.1z"/>
						<path class="st5" d="M191.86,1295.1h-13.41c-2.74,0-4.96,2.22-4.96,4.96v0.99h23.35v-0.99
							C196.83,1297.32,194.61,1295.1,191.86,1295.1z"/>
					</g>
				</g>
			</g>
		</g>
		<circle class="st5" cx="901.67" cy="845.16" r="537.45"/>
		<g>
			<defs>
				<circle id="SVGID_3_" cx="901.67" cy="845.16" r="522.66"/>
			</defs>
			<clipPath id="SVGID_4_">
				<use xlink:href="#SVGID_3_"  style="overflow:visible;"/>
			</clipPath>
			<g class="st6">
				<g>
					<g>
						<g>
							<g>
								<g>
									<path class="st7" d="M-40.19,1036.35c-1.65-1.38-3.7-2.22-5.84-2.38c0,0-15.69-2.15-16.38-2.05l-3.25,2.66l4.62,7.54
										c1.56,2.55,3.81,4.62,6.49,5.97l62.31,31.36c1.21,0.61,2.29-1.03,1.25-1.9L-40.19,1036.35z"/>
								</g>
							</g>
						</g>
					</g>
				</g>
				<g>
					<g>
						<polygon class="st7" points="55.33,973.44 50.69,973.44 45.87,1232.32 55.33,1232.32 64.8,1232.32 59.97,973.44 						"/>
					</g>
					<g>
						<g>
							<path class="st7" d="M65.45,969.11H45.21c-2.6,0-4.72,2.86-4.72,6.39s2.11,6.39,4.72,6.39h20.24c2.6,0,4.72-2.86,4.72-6.39
								S68.06,969.11,65.45,969.11z"/>
						</g>
						<g>
							<g>
								<g>
									<path class="st7" d="M35.09,974.16c-2.99,0.08-5.91,0.99-8.41,2.63l-58.32,38.28c-1.14,0.75-0.26,2.5,1.02,2.03l60.27-22
										c2.03-0.74,3.77-2.09,4.99-3.87c0,0,9.71-12.51,9.97-13.16l-0.69-4.15L35.09,974.16z"/>
								</g>
								<g>
									<path class="st7" d="M70.08,979.85c-1.65-1.38-3.7-2.22-5.84-2.38c0,0-15.69-2.15-16.38-2.05l-3.25,2.66l4.62,7.54
										c1.56,2.55,3.81,4.62,6.49,5.97l62.31,31.36c1.21,0.61,2.29-1.03,1.25-1.9L70.08,979.85z"/>
								</g>
								<g>
									<path class="st7" d="M50,889.4c-0.08-1.36-2.04-1.47-2.27-0.13l-11.08,63.2c-0.37,2.12-0.07,4.31,0.86,6.25
										c0,0,5.98,14.66,6.42,15.21l3.93,1.48l4.22-7.77c1.43-2.63,2.09-5.61,1.93-8.6L50,889.4z"/>
								</g>
							</g>
						</g>
						<g>
							<ellipse class="st7" cx="45.21" cy="975.5" rx="4.72" ry="6.39"/>
						</g>
						<ellipse class="st7" cx="45.21" cy="975.5" rx="1.79" ry="2.42"/>
						<g>
							<path class="st7" d="M43.67,970.5h-1.21c-1.58,0-8.39,2.4-8.36,5c0.03,2.39,6.98,5,8.36,5h1.21c1.84,0,3.33-2.24,3.33-5
								C47,972.74,45.51,970.5,43.67,970.5z"/>
						</g>
					</g>
				</g>
				<polygon class="st8" points="1177.13,902.98 1173.09,902.98 1168.89,1128.2 1177.13,1128.2 1185.36,1128.2 1181.17,902.98 				
					"/>
				<path class="st8" d="M1185.94,899.23h-17.61c-2.27,0-4.1,2.49-4.1,5.56c0,3.07,1.84,5.56,4.1,5.56h17.61
					c2.27,0,4.1-2.49,4.1-5.56C1190.04,901.72,1188.2,899.23,1185.94,899.23z"/>
				<g>
					<g>
						<g>
							<path class="st9" d="M1159.51,903.62c-2.6,0.07-5.14,0.86-7.32,2.29l-50.74,33.31c-0.99,0.65-0.22,2.17,0.89,1.77
								l52.44-19.14c1.76-0.64,3.28-1.82,4.34-3.37c0,0,8.45-10.89,8.67-11.45l-0.59-3.6L1159.51,903.62z"/>
						</g>
					</g>
					<g>
						<g>
							<path class="st9" d="M1189.96,908.57c-1.44-1.2-3.21-1.93-5.09-2.07c0,0-13.65-1.87-14.25-1.78l-2.82,2.32l4.02,6.56
								c1.36,2.22,3.32,4.02,5.64,5.19l54.21,27.29c1.06,0.53,1.99-0.89,1.09-1.65L1189.96,908.57z"/>
						</g>
					</g>
					<g>
						<g>
							<path class="st9" d="M1172.49,829.88c-0.07-1.18-1.77-1.28-1.98-0.12l-9.64,54.99c-0.32,1.85-0.06,3.75,0.75,5.44
								c0,0,5.2,12.76,5.58,13.23l3.42,1.29l3.67-6.76c1.24-2.29,1.82-4.88,1.67-7.48L1172.49,829.88z"/>
						</g>
					</g>
				</g>
				<ellipse class="st8" cx="1168.32" cy="904.79" rx="4.1" ry="5.56"/>
				<path class="st9" d="M1168.32,902.68c-0.86,0-1.55,0.94-1.55,2.1s0.7,2.1,1.55,2.1s1.55-0.94,1.55-2.1
					S1169.18,902.68,1168.32,902.68z"/>
				<path class="st0" d="M1166.91,900.53l-1.05,0c-1.37,0-7.29,2.1-7.26,4.36c0.03,2.08,6.08,4.33,7.28,4.33l1.05,0
					c1.6,0,2.89-1.95,2.89-4.35C1169.81,902.47,1168.51,900.53,1166.91,900.53z"/>
				<polygon class="st7" points="183.17,1090.57 109.93,1093.86 98.75,1161.34 42.82,1325.29 434.78,1325.29 434.78,1161.34 
					162.43,1161.34 				"/>
				<path class="st8" d="M284.87,823.61c-0.54,0-1.08,0.03-1.6,0.09c0.05-0.6,0.09-1.21,0.09-1.83c0-12.06-9.56-21.83-21.36-21.83
					c-3.05,0-5.94,0.66-8.57,1.84c-0.62-7.95-7.12-14.21-15.06-14.21c-7.96,0-14.47,6.29-15.06,14.26
					c-2.29-0.73-4.72-1.13-7.24-1.13c-13.36,0-24.19,11.07-24.19,24.73c0,0.44,0.04,0.87,0.07,1.31c-2.06-1.08-4.39-1.7-6.87-1.7
					c-7.78,0-14.18,6-15.02,13.72h129.92C299.88,830.43,293.16,823.61,284.87,823.61z"/>
				<g>
					<path class="st10" d="M71.73,1098.3c0,37.28,26.82,67.5,26.82,67.5s26.82-30.22,26.82-67.5s-26.82-67.5-26.82-67.5
						S71.73,1061.03,71.73,1098.3z"/>
					<path class="st11" d="M98.55,1095.22c-0.87,0-1.58,0.71-1.58,1.58v114.95c0,0.87,0.71,1.58,1.58,1.58s1.58-0.71,1.58-1.58
						V1096.8C100.12,1095.93,99.42,1095.22,98.55,1095.22z"/>
				</g>
				<g>
					<path class="st12" d="M113.12,1079.26c0,48.96,38.35,88.66,38.35,88.66s38.35-39.69,38.35-88.66
						c0-48.96-38.35-166.8-38.35-166.8S113.12,1030.3,113.12,1079.26z"/>
					<path class="st11" d="M151.46,1062.08c-0.87,0-1.58,0.71-1.58,1.58v220.74c0,0.87,0.71,1.58,1.58,1.58
						c0.87,0,1.58-0.71,1.58-1.58v-220.74C153.04,1062.79,152.33,1062.08,151.46,1062.08z"/>
				</g>
				<path class="st12" d="M598.62,739.06c-24.05,9.84-33.86,18.27-57.26,20.76c-49.21,5.23-45.59,27.91-72.93,44.18
					c-28.92,17.21-79.15-37.79-123.93,29.12c-11.23,16.78-0.74,18.7,3.1,18.78c1.94-0.2,1.44,0.03,0,0
					c-1.74,0.18-5.45,0.7-12.22,2.08c-34.37,6.97-38.32,46.21-38.32,46.21l356.88,49.65V768.87
					C653.94,768.87,619.45,730.55,598.62,739.06z"/>
				<path class="st12" d="M347.6,851.9C349.04,851.93,349.54,851.71,347.6,851.9L347.6,851.9z"/>
				<path class="st13" d="M443.18,985.95c-9.33,0-17.68,4.14-23.48,10.69c-0.55-17.41-14.49-31.36-31.65-31.36
					c-4.78,0-9.3,1.11-13.36,3.05c0.01-0.24,0.03-0.46,0.03-0.7c0-17.9-14.2-32.41-31.7-32.41c-7.14,0-13.71,2.44-19.01,6.51
					c-1.64-16.32-15.13-29.06-31.54-29.06c-8.11,0-15.48,3.14-21.09,8.26c-4.65-11.98-16.07-20.47-29.46-20.47
					c-16.7,0-30.35,13.2-31.58,29.95c-4.75-2.89-10.27-4.59-16.2-4.59c-17.51,0-31.7,14.51-31.7,32.41v60.12h312.45
					C474.89,1000.46,460.69,985.95,443.18,985.95z"/>
				<rect x="1031.92" y="1161.34" class="st12" width="161.91" height="163.95"/>
				<polygon class="st13" points="597.69,1325.29 787.63,1325.29 787.63,1161.34 541.36,1161.34 				"/>
				<polygon class="st7" points="653.94,1018.36 743.76,1018.36 782.3,1024.04 782.3,811.45 653.94,811.45 				"/>
				<polygon class="st9" points="743.76,918.33 820.84,918.33 782.3,811.45 				"/>
				<polygon class="st12" points="782.3,811.45 820.84,918.33 1040.89,918.33 1002.35,811.45 				"/>
				<g>
					<polygon class="st7" points="798.97,811.45 837.51,918.33 851.04,918.33 812.5,811.45 					"/>
					<polygon class="st7" points="972.9,811.45 1011.44,918.33 1024.98,918.33 986.44,811.45 					"/>
					<polygon class="st7" points="833.75,811.45 872.29,918.33 885.83,918.33 847.29,811.45 					"/>
					<polygon class="st7" points="868.54,811.45 907.08,918.33 920.62,918.33 882.08,811.45 					"/>
					<polygon class="st7" points="903.32,811.45 941.86,918.33 955.4,918.33 916.86,811.45 					"/>
					<polygon class="st7" points="938.11,811.45 976.65,918.33 990.19,918.33 951.65,811.45 					"/>
				</g>
				<rect x="743.76" y="918.33" class="st9" width="77.08" height="211.43"/>
				<rect x="820.84" y="918.33" class="st0" width="220.05" height="211.43"/>
				<g>
					<polygon class="st8" points="297.06,881.61 391.94,881.61 344.5,833.13 					"/>
					<polygon class="st7" points="344.5,833.13 391.94,881.61 541.36,881.61 493.92,833.13 					"/>
					<rect x="297.06" y="881.61" class="st8" width="94.88" height="136.75"/>
					<rect x="391.94" y="881.61" class="st13" width="149.41" height="136.75"/>
				</g>
				<rect x="880.69" y="963.11" class="st8" width="151.23" height="198.22"/>
				<rect x="1031.92" y="963.11" class="st0" width="108.54" height="198.22"/>
				<rect x="1133.34" y="1031.61" class="st0" width="60.5" height="129.72"/>
				<rect x="992.78" y="918.33" class="st7" width="95.33" height="44.78"/>
				<polygon class="st7" points="992.78,918.33 1088.12,918.33 1040.45,868.01 				"/>
				<polygon class="st0" points="880.69,918.33 992.78,918.33 1040.45,868.01 928.36,868.01 				"/>
				<rect x="880.69" y="918.33" class="st8" width="112.09" height="44.78"/>
				<g>
					<rect x="893.52" y="934.02" class="st7" width="15.12" height="20.01"/>
					<rect x="930.34" y="934.02" class="st7" width="15.12" height="20.01"/>
					<rect x="967.15" y="934.02" class="st7" width="15.12" height="20.01"/>
				</g>
				<g>
					<rect x="893.52" y="991.91" class="st7" width="15.12" height="20.01"/>
					<rect x="930.34" y="991.91" class="st7" width="15.12" height="20.01"/>
					<rect x="967.15" y="991.91" class="st7" width="15.12" height="20.01"/>
					<rect x="1003.98" y="991.91" class="st7" width="15.12" height="20.01"/>
				</g>
				<g>
					<rect x="893.52" y="1049.8" class="st7" width="15.12" height="20.01"/>
					<rect x="930.34" y="1049.8" class="st7" width="15.12" height="20.01"/>
					<rect x="967.15" y="1049.8" class="st7" width="15.12" height="20.01"/>
					<rect x="1003.98" y="1049.8" class="st7" width="15.12" height="20.01"/>
				</g>
				<g>
					<rect x="1050.09" y="991.91" class="st7" width="15.12" height="20.01"/>
					<rect x="1086.91" y="991.91" class="st7" width="15.12" height="20.01"/>
					<rect x="1050.09" y="1049.8" class="st7" width="15.12" height="20.01"/>
					<rect x="1086.91" y="1049.8" class="st7" width="15.12" height="20.01"/>
					<rect x="1123.73" y="1049.8" class="st7" width="15.12" height="20.01"/>
					<rect x="1160.55" y="1049.8" class="st7" width="15.12" height="20.01"/>
					<rect x="1050.09" y="1107.69" class="st7" width="15.12" height="20.01"/>
					<rect x="1086.91" y="1107.69" class="st7" width="15.12" height="20.01"/>
					<rect x="1123.73" y="1107.69" class="st7" width="15.12" height="20.01"/>
					<rect x="1160.55" y="1107.69" class="st7" width="15.12" height="20.01"/>
				</g>
				<rect x="1050.09" y="990.33" class="st8" width="15.12" height="3.16"/>
				<rect x="1086.91" y="990.33" class="st8" width="15.12" height="3.16"/>
				<rect x="1050.09" y="1048.22" class="st8" width="15.12" height="3.16"/>
				<rect x="1086.91" y="1048.22" class="st8" width="15.12" height="3.16"/>
				<rect x="1123.73" y="1048.22" class="st8" width="15.12" height="3.16"/>
				<rect x="1160.55" y="1048.22" class="st8" width="15.12" height="3.16"/>
				<rect x="1050.09" y="1106.11" class="st8" width="15.12" height="3.16"/>
				<rect x="1086.91" y="1106.11" class="st8" width="15.12" height="3.16"/>
				<rect x="1123.73" y="1106.11" class="st8" width="15.12" height="3.16"/>
				<rect x="1160.55" y="1106.11" class="st8" width="15.12" height="3.16"/>
				<g>
					<rect x="162.43" y="1018.36" class="st9" width="216.86" height="142.98"/>
					<rect x="379.3" y="1018.36" class="st12" width="162.06" height="142.98"/>
					<polygon class="st7" points="162.43,1018.36 379.3,1018.36 460.33,945.64 243.46,945.64 					"/>
					<polygon class="st12" points="379.3,1018.36 541.36,1018.36 460.33,945.64 					"/>
					<g>
						<polygon class="st10" points="310.96,1018.36 351.05,982.38 270.86,982.38 						"/>
						<polygon class="st9" points="230.77,1018.36 274.71,1041.14 310.96,1018.36 270.86,982.38 						"/>
					</g>
					<g>
						<rect x="410.18" y="1049.16" class="st10" width="7.96" height="8.14"/>
						<rect x="410.18" y="1073.57" class="st10" width="7.96" height="8.14"/>
						<rect x="410.18" y="1097.99" class="st10" width="7.96" height="8.14"/>
						<rect x="410.18" y="1122.4" class="st10" width="7.96" height="8.14"/>
						<rect x="434.07" y="1049.16" class="st10" width="7.96" height="8.14"/>
						<rect x="434.07" y="1073.57" class="st10" width="7.96" height="8.14"/>
						<rect x="434.07" y="1097.99" class="st10" width="7.96" height="8.14"/>
						<rect x="434.07" y="1122.4" class="st10" width="7.96" height="8.14"/>
						<rect x="457.96" y="1049.16" class="st10" width="7.96" height="8.14"/>
						<rect x="457.96" y="1073.57" class="st10" width="7.96" height="8.14"/>
						<rect x="457.96" y="1097.99" class="st10" width="7.96" height="8.14"/>
						<rect x="457.96" y="1122.4" class="st10" width="7.96" height="8.14"/>
						<rect x="481.84" y="1049.16" class="st10" width="7.96" height="8.14"/>
						<rect x="481.84" y="1073.57" class="st10" width="7.96" height="8.14"/>
						<rect x="481.84" y="1097.99" class="st10" width="7.96" height="8.14"/>
						<rect x="481.84" y="1122.4" class="st10" width="7.96" height="8.14"/>
						<rect x="505.73" y="1049.16" class="st10" width="7.96" height="8.14"/>
						<rect x="505.73" y="1073.57" class="st10" width="7.96" height="8.14"/>
						<rect x="505.73" y="1097.99" class="st10" width="7.96" height="8.14"/>
						<rect x="505.73" y="1122.4" class="st10" width="7.96" height="8.14"/>
					</g>
				</g>
				<g>
					<g>
						<rect x="183.06" y="1035.26" class="st13" width="10.19" height="28"/>
						<rect x="224.58" y="1035.26" class="st13" width="10.19" height="28"/>
						<rect x="266.1" y="1035.26" class="st13" width="10.19" height="28"/>
						<rect x="307.62" y="1035.26" class="st13" width="10.19" height="28"/>
						<rect x="349.13" y="1035.26" class="st13" width="10.19" height="28"/>
					</g>
					<g>
						<rect x="183.06" y="1084.72" class="st13" width="10.19" height="28"/>
						<rect x="224.58" y="1084.72" class="st13" width="10.19" height="28"/>
						<rect x="266.1" y="1084.72" class="st13" width="10.19" height="28"/>
						<rect x="307.62" y="1084.72" class="st13" width="10.19" height="28"/>
						<rect x="349.13" y="1084.72" class="st13" width="10.19" height="28"/>
					</g>
				</g>
				<g>
					<g>
						<rect x="183.06" y="1033.68" class="st12" width="10.19" height="3.16"/>
						<rect x="224.58" y="1033.68" class="st12" width="10.19" height="3.16"/>
						<rect x="266.1" y="1033.68" class="st12" width="10.19" height="3.16"/>
						<rect x="307.62" y="1033.68" class="st12" width="10.19" height="3.16"/>
						<rect x="349.13" y="1033.68" class="st12" width="10.19" height="3.16"/>
					</g>
					<g>
						<rect x="183.06" y="1083.14" class="st12" width="10.19" height="3.16"/>
						<rect x="224.58" y="1083.14" class="st12" width="10.19" height="3.16"/>
						<rect x="266.1" y="1083.14" class="st12" width="10.19" height="3.16"/>
						<rect x="307.62" y="1083.14" class="st12" width="10.19" height="3.16"/>
						<rect x="349.13" y="1083.14" class="st12" width="10.19" height="3.16"/>
					</g>
				</g>
				<polygon class="st9" points="541.36,811.45 653.94,811.45 597.65,765.75 				"/>
				<polygon class="st12" points="597.65,765.75 653.94,811.45 653.94,759.82 597.65,714.12 				"/>
				<polygon class="st0" points="541.36,811.45 597.65,765.75 597.65,714.12 541.36,759.82 				"/>
				<rect x="541.36" y="811.45" class="st9" width="112.58" height="206.91"/>
				<g>
					<g>
						<g>
							<rect x="557.17" y="840.35" class="st7" width="6.23" height="6.36"/>
						</g>
						<g>
							<rect x="557.17" y="859.45" class="st7" width="6.23" height="6.36"/>
						</g>
						<g>
							<rect x="557.17" y="878.54" class="st7" width="6.23" height="6.36"/>
						</g>
						<g>
							<rect x="575.85" y="821.26" class="st7" width="6.23" height="6.36"/>
						</g>
						<g>
							<rect x="575.85" y="840.35" class="st7" width="6.23" height="6.36"/>
						</g>
						<g>
							<rect x="575.85" y="859.45" class="st7" width="6.23" height="6.36"/>
						</g>
						<g>
							<rect x="575.85" y="878.54" class="st7" width="6.23" height="6.36"/>
						</g>
						<g>
							<rect x="594.54" y="802.16" class="st7" width="6.23" height="6.36"/>
						</g>
						<g>
							<rect x="594.54" y="821.26" class="st7" width="6.23" height="6.36"/>
						</g>
						<g>
							<rect x="594.54" y="840.35" class="st7" width="6.23" height="6.36"/>
						</g>
						<g>
							<rect x="594.54" y="859.45" class="st7" width="6.23" height="6.36"/>
						</g>
						<g>
							<rect x="594.54" y="878.54" class="st7" width="6.23" height="6.36"/>
						</g>
						<g>
							<rect x="613.22" y="821.26" class="st7" width="6.23" height="6.36"/>
						</g>
						<g>
							<rect x="613.22" y="840.35" class="st7" width="6.23" height="6.36"/>
						</g>
						<g>
							<rect x="613.22" y="859.45" class="st7" width="6.23" height="6.36"/>
						</g>
						<g>
							<rect x="613.22" y="878.54" class="st7" width="6.23" height="6.36"/>
						</g>
						<g>
							<rect x="631.9" y="840.35" class="st7" width="6.23" height="6.36"/>
						</g>
						<g>
							<rect x="631.9" y="859.45" class="st7" width="6.23" height="6.36"/>
						</g>
						<g>
							<rect x="631.9" y="878.54" class="st7" width="6.23" height="6.36"/>
						</g>
					</g>
					<g>
						<g>
							<rect x="557.17" y="897.64" class="st7" width="6.23" height="6.36"/>
						</g>
						<g>
							<rect x="575.85" y="897.64" class="st7" width="6.23" height="6.36"/>
						</g>
						<g>
							<rect x="594.54" y="897.64" class="st7" width="6.23" height="6.36"/>
						</g>
						<g>
							<rect x="613.22" y="897.64" class="st7" width="6.23" height="6.36"/>
						</g>
						<g>
							<rect x="631.9" y="897.64" class="st7" width="6.23" height="6.36"/>
						</g>
					</g>
				</g>
				<polygon class="st7" points="541.36,1018.36 541.36,1161.34 882.25,1161.34 743.76,1018.36 				"/>
				<g>
					<path class="st8" d="M694.44,1042.46c0,43.43,31.24,78.63,31.24,78.63s31.24-35.2,31.24-78.63c0-43.43-31.24-78.63-31.24-78.63
						S694.44,999.03,694.44,1042.46z"/>
					<path class="st10" d="M725.68,1027.04c-0.87,0-1.58,0.71-1.58,1.58v104.32c0,0.87,0.71,1.58,1.58,1.58s1.58-0.71,1.58-1.58
						v-104.32C727.26,1027.75,726.56,1027.04,725.68,1027.04z"/>
					<path class="st10" d="M736.07,1046.68l-10.39,10.62l-10.39-10.62c-0.61-0.62-1.61-0.64-2.23-0.03s-0.64,1.61-0.03,2.23
						l11.52,11.78c0.3,0.3,0.7,0.47,1.13,0.47s0.83-0.17,1.13-0.47l11.52-11.78c0.61-0.62,0.6-1.62-0.03-2.23
						C737.69,1046.04,736.68,1046.05,736.07,1046.68z"/>
				</g>
				<path class="st0" d="M603.83,1045.25c0,38.36,27.6,69.46,27.6,69.46s27.6-31.1,27.6-69.46c0-38.36-27.6-69.46-27.6-69.46
					S603.83,1006.88,603.83,1045.25z"/>
				<path class="st12" d="M645.49,1013.72c0,43.43,31.24,78.63,31.24,78.63s31.24-35.2,31.24-78.63s-31.24-78.63-31.24-78.63
					S645.49,970.29,645.49,1013.72z"/>
				<path class="st10" d="M676.73,1002.56c-0.87,0-1.58,0.71-1.58,1.58v132c0,0.87,0.71,1.58,1.58,1.58s1.58-0.71,1.58-1.58v-132
					C678.31,1003.26,677.61,1002.56,676.73,1002.56z"/>
				<path class="st12" d="M631.43,1031.3c-0.87,0-1.58,0.71-1.58,1.58v101.13c0,0.87,0.71,1.58,1.58,1.58s1.58-0.71,1.58-1.58
					v-101.13C633.01,1032,632.3,1031.3,631.43,1031.3z"/>
				<path class="st13" d="M620.49,1091.96c-45.31-30.34-79.13-16.25-79.13-16.25v85.62h339.33c0,0-63.36-58.2-111.79-58.2
					C700,1103.14,682.83,1133.71,620.49,1091.96z"/>
				<path class="st12" d="M795.46,1138.27c-45.04-7.23-69.92,17.22-91.18,31.46c-21.78,14.59-27.4,2.32-50.59,0.53
					c-38.19-2.94-34.09,25.88-58.74,23.55c-22-2.08-47.4-41.31-77.06-1.34l25.8,30.7l296.54,68.38l80.2,9.58
					C920.44,1301.14,844.87,1146.2,795.46,1138.27z"/>
				<g>
					<path class="st7" d="M566.83,1131.42l-26.8,109.84l73.43,7.98l-28.45-117.8C582.67,1121.75,569.19,1121.73,566.83,1131.42z"/>
					<path class="st12" d="M575.97,1151.06c-0.87,0-1.58,0.71-1.58,1.58v69.43c0,0.87,0.71,1.58,1.58,1.58
						c0.87,0,1.58-0.71,1.58-1.58v-69.43C577.55,1151.77,576.84,1151.06,575.97,1151.06z"/>
					<path class="st12" d="M588.87,1183.47l-11.33,11.58v-11.86c0-0.3-0.08-0.59-0.25-0.85l-9.97-15.74
						c-0.47-0.74-1.44-0.96-2.18-0.49c-0.74,0.47-0.96,1.44-0.49,2.18l9.72,15.35v15.28c0,0.64,0.39,1.22,0.98,1.46
						c0.19,0.08,0.4,0.12,0.6,0.12c0.42,0,0.83-0.17,1.13-0.47l14.04-14.35c0.61-0.62,0.6-1.62-0.03-2.23
						C590.48,1182.84,589.48,1182.85,588.87,1183.47z"/>
				</g>
				<g>
					<path class="st7" d="M610.57,1127.43l-26.8,109.84l73.43,7.98l-28.45-117.8C626.42,1117.76,612.94,1117.74,610.57,1127.43z"/>
					<path class="st12" d="M619.71,1147.07c-0.87,0-1.58,0.71-1.58,1.58v99.8c0,0.87,0.71,1.58,1.58,1.58s1.58-0.71,1.58-1.58v-99.8
						C621.29,1147.77,620.58,1147.07,619.71,1147.07z"/>
					<path class="st12" d="M632.62,1179.48l-11.33,11.58v-11.86c0-0.3-0.08-0.59-0.25-0.85l-9.96-15.74
						c-0.47-0.74-1.44-0.96-2.18-0.49c-0.74,0.47-0.96,1.44-0.49,2.18l9.72,15.35v15.28c0,0.64,0.39,1.22,0.98,1.46
						c0.19,0.08,0.4,0.12,0.6,0.12c0.42,0,0.83-0.17,1.13-0.47l14.04-14.35c0.61-0.62,0.6-1.62-0.03-2.23
						C634.23,1178.84,633.23,1178.85,632.62,1179.48z"/>
				</g>
				<path class="st9" d="M725.68,1286.77c-28.12,5.32-47.34-47.14-71.34-56.95c-18.23-7.45-27.6,10.64-42.18-8.52
					c-14.58-19.16-52.07-41.52-77.59-33.53l31.24,125.09l214.03-7.45l-8.85-28.74C770.99,1276.66,753.8,1281.45,725.68,1286.77z"/>
				<path class="st10" d="M787.63,1161.34c-44.76,8.87-41.49,37.06-56.74,57.84c-15.62,21.29-25,11.71-47.39,18.1
					c-36.89,10.52-23.43,36.2-47.39,42.58c-21.38,5.7-58.32-22.36-72.9,25.55l34.49,19.89h201.99l35.39-81.98l12.89-50.15
					C847.96,1193.17,836.73,1151.61,787.63,1161.34z"/>
				<g>
					<g>
						<g>
							<polygon class="st10" points="434.78,1161.34 491.12,1225.25 597.69,1225.25 541.36,1161.34 							"/>
							<rect x="491.12" y="1225.25" class="st13" width="106.58" height="100.04"/>
						</g>
						<rect x="434.78" y="1225.25" class="st9" width="56.34" height="100.04"/>
						<polygon class="st9" points="434.78,1225.25 491.12,1225.25 434.78,1161.34 						"/>
					</g>
					<g>
						<rect x="533.39" y="1250.25" class="st7" width="22.91" height="16.08"/>
						<rect x="533.39" y="1287.08" class="st7" width="22.91" height="16.08"/>
					</g>
					<g>
						<rect x="533.39" y="1264.75" class="st12" width="22.91" height="3.16"/>
						<rect x="533.39" y="1301.59" class="st12" width="22.91" height="3.16"/>
					</g>
				</g>
				<g>
					<polygon class="st9" points="787.63,1161.34 882.51,1161.34 835.07,1112.84 					"/>
					<polygon class="st7" points="835.07,1112.84 882.51,1161.34 1031.92,1161.34 984.48,1112.84 					"/>
					<rect x="787.63" y="1161.34" class="st9" width="94.88" height="163.95"/>
					<rect x="882.51" y="1161.34" class="st13" width="149.41" height="163.95"/>
					<g>
						<g>
							<g>
								<rect x="898.06" y="1178.79" class="st10" width="6.23" height="6.36"/>
							</g>
							<g>
								<rect x="898.06" y="1197.88" class="st10" width="6.23" height="6.36"/>
							</g>
							<g>
								<rect x="898.06" y="1216.98" class="st10" width="6.23" height="6.36"/>
							</g>
							<g>
								<rect x="898.06" y="1236.07" class="st10" width="6.23" height="6.36"/>
							</g>
							<g>
								<rect x="898.06" y="1255.17" class="st10" width="6.23" height="6.36"/>
							</g>
							<g>
								<rect x="916.74" y="1178.79" class="st10" width="6.23" height="6.36"/>
							</g>
							<g>
								<rect x="916.74" y="1197.88" class="st10" width="6.23" height="6.36"/>
							</g>
							<g>
								<rect x="916.74" y="1216.98" class="st10" width="6.23" height="6.36"/>
							</g>
							<g>
								<rect x="916.74" y="1236.07" class="st10" width="6.23" height="6.36"/>
							</g>
							<g>
								<rect x="916.74" y="1255.17" class="st10" width="6.23" height="6.36"/>
							</g>
							<g>
								<rect x="935.42" y="1178.79" class="st10" width="6.23" height="6.36"/>
							</g>
							<g>
								<rect x="935.42" y="1197.88" class="st10" width="6.23" height="6.36"/>
							</g>
							<g>
								<rect x="935.42" y="1216.98" class="st10" width="6.23" height="6.36"/>
							</g>
							<g>
								<rect x="935.42" y="1236.07" class="st10" width="6.23" height="6.36"/>
							</g>
							<g>
								<rect x="935.42" y="1255.17" class="st10" width="6.23" height="6.36"/>
							</g>
							<g>
								<rect x="954.1" y="1178.79" class="st10" width="6.23" height="6.36"/>
							</g>
							<g>
								<rect x="954.1" y="1197.88" class="st10" width="6.23" height="6.36"/>
							</g>
							<g>
								<rect x="954.1" y="1216.98" class="st10" width="6.23" height="6.36"/>
							</g>
							<g>
								<rect x="954.1" y="1236.07" class="st10" width="6.23" height="6.36"/>
							</g>
							<g>
								<rect x="954.1" y="1255.17" class="st10" width="6.23" height="6.36"/>
							</g>
							<g>
								<rect x="972.79" y="1178.79" class="st10" width="6.23" height="6.36"/>
							</g>
							<g>
								<rect x="972.79" y="1197.88" class="st10" width="6.23" height="6.36"/>
							</g>
							<g>
								<rect x="972.79" y="1216.98" class="st10" width="6.23" height="6.36"/>
							</g>
							<g>
								<rect x="972.79" y="1236.07" class="st10" width="6.23" height="6.36"/>
							</g>
							<g>
								<rect x="972.79" y="1255.17" class="st10" width="6.23" height="6.36"/>
							</g>
							<g>
								<rect x="991.47" y="1178.79" class="st10" width="6.23" height="6.36"/>
							</g>
							<g>
								<rect x="991.47" y="1197.88" class="st10" width="6.23" height="6.36"/>
							</g>
							<g>
								<rect x="991.47" y="1216.98" class="st10" width="6.23" height="6.36"/>
							</g>
							<g>
								<rect x="991.47" y="1236.07" class="st10" width="6.23" height="6.36"/>
							</g>
							<g>
								<rect x="991.47" y="1255.17" class="st10" width="6.23" height="6.36"/>
							</g>
							<g>
								<rect x="1010.15" y="1178.79" class="st10" width="6.23" height="6.36"/>
							</g>
							<g>
								<rect x="1010.15" y="1197.88" class="st10" width="6.23" height="6.36"/>
							</g>
							<g>
								<rect x="1010.15" y="1216.98" class="st10" width="6.23" height="6.36"/>
							</g>
							<g>
								<rect x="1010.15" y="1236.07" class="st10" width="6.23" height="6.36"/>
							</g>
							<g>
								<rect x="1010.15" y="1255.17" class="st10" width="6.23" height="6.36"/>
							</g>
						</g>
						<g>
							<g>
								<rect x="898.06" y="1274.26" class="st10" width="6.23" height="6.36"/>
							</g>
							<g>
								<rect x="916.74" y="1274.26" class="st10" width="6.23" height="6.36"/>
							</g>
							<g>
								<rect x="935.42" y="1274.26" class="st10" width="6.23" height="6.36"/>
							</g>
							<g>
								<rect x="954.1" y="1274.26" class="st10" width="6.23" height="6.36"/>
							</g>
							<g>
								<rect x="972.79" y="1274.26" class="st10" width="6.23" height="6.36"/>
							</g>
							<g>
								<rect x="991.47" y="1274.26" class="st10" width="6.23" height="6.36"/>
							</g>
							<g>
								<rect x="1010.15" y="1274.26" class="st10" width="6.23" height="6.36"/>
							</g>
						</g>
					</g>
					<g>
						<polygon class="st13" points="967.49,1112.84 1014.94,1161.34 1019.68,1161.34 972.23,1112.84 						"/>
						<polygon class="st13" points="947.46,1112.84 994.91,1161.34 999.65,1161.34 952.2,1112.84 						"/>
						<polygon class="st13" points="927.44,1112.84 974.88,1161.34 979.62,1161.34 932.18,1112.84 						"/>
						<polygon class="st13" points="907.41,1112.84 954.85,1161.34 959.59,1161.34 912.15,1112.84 						"/>
						<polygon class="st13" points="887.38,1112.84 934.82,1161.34 939.56,1161.34 892.11,1112.84 						"/>
						<polygon class="st13" points="867.35,1112.84 914.79,1161.34 919.53,1161.34 872.08,1112.84 						"/>
						<polygon class="st13" points="847.32,1112.84 894.76,1161.34 899.5,1161.34 852.06,1112.84 						"/>
					</g>
				</g>
				<g>
					<path class="st12" d="M181.18,1185.27c0,37.28,26.82,67.5,26.82,67.5s26.82-30.22,26.82-67.5c0-37.28-26.82-67.5-26.82-67.5
						S181.18,1148,181.18,1185.27z"/>
					<path class="st11" d="M208,1171.81c-0.87,0-1.58,0.71-1.58,1.58v89.55c0,0.87,0.71,1.58,1.58,1.58c0.87,0,1.58-0.71,1.58-1.58
						v-89.55C209.58,1172.52,208.87,1171.81,208,1171.81z"/>
				</g>
				<path class="st0" d="M297.57,1193.26c0,37.28,26.82,67.5,26.82,67.5s26.82-30.22,26.82-67.5c0-37.28-26.82-67.5-26.82-67.5
					S297.57,1155.98,297.57,1193.26z"/>
				<path class="st10" d="M324.39,1190.18c-0.87,0-1.58,0.71-1.58,1.58v89.55c0,0.87,0.71,1.58,1.58,1.58s1.58-0.71,1.58-1.58
					v-89.55C325.97,1190.89,325.26,1190.18,324.39,1190.18z"/>
				<g>
					<path class="st13" d="M340.53,1188.07c0,48.96,38.35,88.66,38.35,88.66s38.35-39.69,38.35-88.66
						c0-48.96-38.35-88.66-38.35-88.66S340.53,1139.11,340.53,1188.07z"/>
					<path class="st11" d="M378.88,1170.89c-0.87,0-1.58,0.71-1.58,1.58v117.62c0,0.87,0.71,1.58,1.58,1.58s1.58-0.71,1.58-1.58
						v-117.62C380.46,1171.59,379.76,1170.89,378.88,1170.89z"/>
				</g>
				<path class="st12" d="M400.32,1306.38c-23.95-4.34-10.5-21.79-47.39-28.95c-22.39-4.34-39.2,11.59-58.55,2.72
					c-26.33-12.07-36.03-21.94-81.2-21.94c-28.53,0-100.95,2.2-127.24,67.08h76.49h272.35v-20.79
					C422.44,1305.29,409.84,1308.11,400.32,1306.38z"/>
				<path class="st13" d="M892.58,783.91c-7.93,0-15.03,3.52-19.96,9.09c-0.47-14.8-12.31-26.65-26.9-26.65
					c-4.06,0-7.9,0.94-11.36,2.59c0-0.2,0.03-0.39,0.03-0.59c0-15.21-12.07-27.55-26.95-27.55c-6.07,0-11.65,2.08-16.16,5.54
					c-1.39-13.87-12.86-24.7-26.81-24.7c-6.89,0-13.16,2.67-17.93,7.02c-3.95-10.19-13.66-17.4-25.04-17.4
					c-14.19,0-25.8,11.22-26.85,25.46c-4.03-2.46-8.73-3.9-13.77-3.9c-14.88,0-26.95,12.33-26.95,27.55v51.1h265.59
					C919.52,796.24,907.46,783.91,892.58,783.91z"/>
				<path class="st8" d="M1382.66,912.3c-4.84,0-9.3,1.66-12.9,4.42c-1.11-11.08-10.27-19.71-21.4-19.71
					c-5.5,0-10.51,2.13-14.31,5.6c-3.16-8.13-10.91-13.89-19.99-13.89c-11.33,0-20.59,8.96-21.43,20.32
					c-3.22-1.96-6.97-3.11-10.99-3.11c-11.88,0-21.51,9.84-21.51,21.99v0.73h143.29C1400.98,919.23,1392.62,912.3,1382.66,912.3z"/>
				<g>
					<circle class="st9" cx="274.21" cy="718.99" r="29.01"/>
					<circle class="st9" cx="274.21" cy="718.99" r="8.45"/>
				</g>
				<path class="st9" d="M856.46,686.05l-3.1,3.17l-3.1-3.17c-0.61-0.62-1.61-0.64-2.23-0.03s-0.64,1.61-0.03,2.23l4.23,4.33
					c0.3,0.31,0.7,0.47,1.13,0.47s0.83-0.17,1.13-0.47l4.23-4.33c0.61-0.62,0.6-1.62-0.03-2.23
					C858.07,685.42,857.07,685.43,856.46,686.05z"/>
				<path class="st9" d="M978.23,718.96l-3.1,3.17l-3.1-3.17c-0.61-0.62-1.61-0.64-2.23-0.03s-0.64,1.61-0.03,2.23l4.23,4.33
					c0.3,0.31,0.7,0.47,1.13,0.47s0.83-0.17,1.13-0.47l4.23-4.33c0.61-0.62,0.6-1.62-0.03-2.23
					C979.84,718.33,978.84,718.34,978.23,718.96z"/>
				<path class="st9" d="M1101.64,840.73l-3.1,3.17l-3.1-3.17c-0.61-0.62-1.61-0.64-2.23-0.03s-0.64,1.61-0.03,2.23l4.23,4.33
					c0.3,0.31,0.7,0.47,1.13,0.47c0.42,0,0.83-0.17,1.13-0.47l4.23-4.33c0.61-0.62,0.6-1.62-0.03-2.23
					C1103.26,840.1,1102.26,840.11,1101.64,840.73z"/>
				<path class="st9" d="M597.02,648.2l-3.1,3.17l-3.1-3.17c-0.61-0.62-1.61-0.64-2.23-0.03s-0.64,1.61-0.03,2.23l4.23,4.33
					c0.3,0.31,0.7,0.47,1.13,0.47s0.83-0.17,1.13-0.47l4.23-4.33c0.61-0.62,0.6-1.62-0.03-2.23
					C598.63,647.57,597.63,647.58,597.02,648.2z"/>
				<path class="st9" d="M582.73,668.66l-3.1,3.17l-3.1-3.17c-0.61-0.62-1.61-0.64-2.23-0.03s-0.64,1.61-0.03,2.23l4.23,4.33
					c0.3,0.31,0.7,0.47,1.13,0.47s0.83-0.17,1.13-0.47l4.23-4.33c0.61-0.62,0.6-1.62-0.03-2.23
					C584.34,668.03,583.34,668.04,582.73,668.66z"/>
				<path class="st9" d="M547.1,704.13l-3.1,3.17l-3.1-3.17c-0.61-0.62-1.61-0.64-2.23-0.03s-0.64,1.61-0.03,2.23l4.23,4.33
					c0.3,0.31,0.7,0.47,1.13,0.47s0.83-0.17,1.13-0.47l4.23-4.33c0.61-0.62,0.6-1.62-0.03-2.23
					C548.71,703.49,547.71,703.51,547.1,704.13z"/>
				<path class="st14" d="M107.13,919.11l-3.1,3.17l-3.1-3.17c-0.61-0.62-1.61-0.64-2.23-0.03s-0.64,1.61-0.03,2.23l4.23,4.33
					c0.3,0.31,0.7,0.47,1.13,0.47c0.42,0,0.83-0.17,1.13-0.47l4.23-4.33c0.61-0.62,0.6-1.62-0.03-2.23S107.74,918.49,107.13,919.11z
					"/>
				<path class="st9" d="M1008.56,746.42l-3.1,3.17l-3.1-3.17c-0.61-0.62-1.61-0.64-2.23-0.03s-0.64,1.61-0.03,2.23l4.23,4.33
					c0.3,0.31,0.7,0.47,1.13,0.47c0.42,0,0.83-0.17,1.13-0.47l4.23-4.33c0.61-0.62,0.6-1.62-0.03-2.23
					C1010.17,745.78,1009.17,745.8,1008.56,746.42z"/>
				<path class="st9" d="M445.87,714.27c-4.2,0-8.19,0.92-11.8,2.54c-0.86-10.95-9.81-19.57-20.74-19.57
					c-10.96,0-19.93,8.66-20.75,19.65c-3.15-1.01-6.5-1.56-9.97-1.56c-16,0-29.35,11.53-32.57,26.89h125.16
					C474.12,726.6,461.42,714.27,445.87,714.27z"/>
				<path class="st9" d="M1175.3,752.4c-4.97,0-9.69,1.08-13.98,3c-1.02-12.97-11.61-23.17-24.56-23.17
					c-12.98,0-23.6,10.26-24.57,23.27c-3.73-1.19-7.7-1.84-11.81-1.84c-18.94,0-34.75,13.65-38.57,31.84h148.2
					C1208.75,767.01,1193.71,752.4,1175.3,752.4z"/>
				<path class="st9" d="M129.36,777.19c-3.95,0-7.7,0.86-11.1,2.38c-0.81-10.3-9.22-18.4-19.5-18.4
					c-10.31,0-18.73,8.14-19.51,18.48c-2.96-0.95-6.11-1.46-9.38-1.46c-15.04,0-27.59,10.84-30.62,25.28h117.67
					C155.92,788.79,143.98,777.19,129.36,777.19z"/>
				<polygon class="st8" points="1276.73,956.14 1270.48,956.14 1263.98,1304.67 1276.73,1304.67 1289.48,1304.67 1282.98,956.14 
									"/>
				<path class="st8" d="M1290.36,950.08h-27.27c-3.51,0-6.35,3.85-6.35,8.6s2.84,8.6,6.35,8.6h27.27c3.51,0,6.35-3.85,6.35-8.6
					S1293.87,950.08,1290.36,950.08z"/>
				<g>
					<g>
						<g>
							<path class="st9" d="M1249.47,956.88c-4.03,0.1-7.96,1.33-11.33,3.55l-78.54,51.56c-1.53,1.01-0.35,3.37,1.37,2.74
								l81.18-29.63c2.73-0.99,5.07-2.82,6.72-5.21c0,0,13.08-16.85,13.42-17.73l-0.92-5.58L1249.47,956.88z"/>
						</g>
					</g>
					<g>
						<g>
							<path class="st9" d="M1296.59,964.53c-2.23-1.87-4.98-2.99-7.87-3.21c0,0-21.13-2.9-22.06-2.76l-4.37,3.59l6.22,10.15
								c2.11,3.44,5.13,6.22,8.74,8.04l83.92,42.24c1.64,0.82,3.09-1.38,1.68-2.56L1296.59,964.53z"/>
						</g>
					</g>
					<g>
						<g>
							<path class="st9" d="M1269.55,842.72c-0.1-1.83-2.74-1.98-3.06-0.18l-14.93,85.12c-0.5,2.86-0.1,5.8,1.15,8.42
								c0,0,8.05,19.75,8.64,20.49l5.29,1.99l5.68-10.46c1.93-3.55,2.82-7.56,2.59-11.59L1269.55,842.72z"/>
						</g>
					</g>
				</g>
				<path class="st8" d="M1263.1,950.08c-3.51,0-6.35,3.85-6.35,8.6s2.84,8.6,6.35,8.6c3.51,0,6.35-3.85,6.35-8.6
					S1266.61,950.08,1263.1,950.08z"/>
				<path class="st9" d="M1263.1,955.42c-1.33,0-2.41,1.46-2.41,3.26c0,1.8,1.08,3.26,2.41,3.26c1.33,0,2.41-1.46,2.41-3.26
					C1265.5,956.88,1264.43,955.42,1263.1,955.42z"/>
				<path class="st0" d="M1261.06,951.86l-1.63,0c-2.13,0-11.29,3.26-11.25,6.75c0.04,3.22,9.41,6.71,11.27,6.71l1.63,0
					c2.48-0.01,4.48-3.02,4.47-6.74C1265.55,954.86,1263.54,951.85,1261.06,951.86z"/>
				<path class="st12" d="M1342.2,1275.87c-1.73,0-3.43,0.14-5.11,0.32c0.16-1.93,0.29-3.84,0.29-5.81
					c0-38.46-30.51-69.64-68.14-69.64c-9.73,0-18.98,2.12-27.35,5.88c-1.99-25.37-22.58-45.32-48.06-45.32v163.81h196.62
					C1390.44,1298.06,1368.84,1275.87,1342.2,1275.87z"/>
				<path class="st7" d="M-65.26,1252.11c-5.16-2.32-10.86-3.62-16.85-3.62c-23.2,0-42.01,19.23-42.01,42.94
					c0,1.21,0.08,2.41,0.18,3.59c-1.03-0.11-2.09-0.25-3.15-0.25c-16.43,0-29.74,13.66-29.74,30.33H61.27l62.51-87.93l-159.42-13.05
					C-51.25,1224.13-64.03,1236.47-65.26,1252.11z"/>
				<g>
					<g>
						<rect x="1074.06" y="1266.23" class="st8" width="7.77" height="57.27"/>
					</g>
					<g>
						<rect x="1162.24" y="1266.23" class="st8" width="7.77" height="57.27"/>
					</g>
					<path class="st8" d="M1085.14,1319.99h-14.39c-2.94,0-5.33,2.38-5.33,5.33v1.06h25.05v-1.06
						C1090.47,1322.38,1088.08,1319.99,1085.14,1319.99z"/>
					<path class="st8" d="M1173.32,1319.99h-14.39c-2.94,0-5.33,2.38-5.33,5.33v1.06h25.05v-1.06
						C1178.64,1322.38,1176.26,1319.99,1173.32,1319.99z"/>
					<g>
						<polygon class="st9" points="1050.15,1273.65 1185.51,1273.65 1211.37,1187.29 1076,1187.29 						"/>
						<g>
							<polygon class="st8" points="1072.05,1226.5 1106.79,1226.5 1116.15,1195.24 1081.41,1195.24 							"/>
							<g>
								<polygon class="st8" points="1060.31,1265.7 1095.05,1265.7 1104.41,1234.44 1069.67,1234.44 								"/>
							</g>
						</g>
						<polygon class="st8" points="1114.58,1226.5 1149.32,1226.5 1158.68,1195.24 1123.93,1195.24 						"/>
						<polygon class="st8" points="1102.84,1265.7 1137.58,1265.7 1146.94,1234.44 1112.19,1234.44 						"/>
						<g>
							<polygon class="st8" points="1157.1,1226.5 1191.85,1226.5 1201.21,1195.24 1166.46,1195.24 							"/>
							<g>
								<polygon class="st8" points="1145.36,1265.7 1180.11,1265.7 1189.47,1234.44 1154.72,1234.44 								"/>
							</g>
						</g>
						<polygon class="st13" points="1050.15,1273.65 1054.26,1281.33 1189.63,1281.33 1185.51,1273.65 						"/>
						<polygon class="st7" points="1185.51,1273.65 1189.63,1281.33 1215.48,1194.97 1211.37,1187.29 						"/>
					</g>
				</g>
				<path class="st0" d="M1233.63,1229.71c0,33.91,24.39,61.39,24.39,61.39s24.39-27.49,24.39-61.39s-24.39-61.39-24.39-61.39
					S1233.63,1195.81,1233.63,1229.71z"/>
				<rect x="1256.44" y="1222.23" class="st10" width="3.16" height="103.06"/>
				<g>
					<path class="st7" d="M1294.69,1229.71c0,33.91,24.39,61.39,24.39,61.39s24.39-27.49,24.39-61.39s-24.39-61.39-24.39-61.39
						S1294.69,1195.81,1294.69,1229.71z"/>
					<rect x="1317.5" y="1222.23" class="st10" width="3.16" height="103.06"/>
				</g>
				<g>
					<path class="st8" d="M1355.75,1229.71c0,33.91,24.39,61.39,24.39,61.39s24.39-27.49,24.39-61.39s-24.39-61.39-24.39-61.39
						S1355.75,1195.81,1355.75,1229.71z"/>
					<rect x="1378.56" y="1222.23" class="st10" width="3.16" height="103.06"/>
				</g>
				<g>
					<g>
						<rect x="65.07" y="1268.75" class="st8" width="7.3" height="53.84"/>
					</g>
					<g>
						<polygon class="st9" points="-41.26,1275.72 85.98,1275.72 121.36,1157.75 -5.89,1157.75 						"/>
						<g>
							<g>
								<polygon class="st9" points="-9.61,1194.61 23.05,1194.61 31.85,1165.22 -0.81,1165.22 								"/>
								<g>
									<polygon class="st9" points="-20.64,1231.46 12.02,1231.46 20.82,1202.08 -11.84,1202.08 									"/>
								</g>
							</g>
							<polygon class="st9" points="30.37,1194.61 63.03,1194.61 71.83,1165.22 39.17,1165.22 							"/>
							<polygon class="st9" points="19.33,1231.46 51.99,1231.46 60.79,1202.08 28.13,1202.08 							"/>
							<g>
								<polygon class="st9" points="70.35,1194.61 103.01,1194.61 111.8,1165.22 79.14,1165.22 								"/>
								<g>
									<polygon class="st9" points="59.31,1231.46 91.97,1231.46 100.77,1202.08 68.11,1202.08 									"/>
								</g>
							</g>
						</g>
						<g>
							<polygon class="st9" points="-31.65,1268.32 1.01,1268.32 9.81,1238.93 -22.85,1238.93 							"/>
						</g>
						<polygon class="st9" points="8.33,1268.32 40.99,1268.32 49.79,1238.93 17.12,1238.93 						"/>
						<g>
							<polygon class="st9" points="48.3,1268.32 80.96,1268.32 89.76,1238.93 57.1,1238.93 							"/>
						</g>
						<polygon class="st12" points="-41.26,1275.72 -37.39,1282.94 89.85,1282.94 85.98,1275.72 						"/>
						<polygon class="st11" points="85.98,1275.72 89.85,1282.94 125.23,1164.97 121.36,1157.75 						"/>
					</g>
					<path class="st8" d="M75.48,1319.28H61.95c-2.76,0-5.01,2.24-5.01,5.01v1h23.55v-1C80.49,1321.53,78.25,1319.28,75.48,1319.28z
						"/>
				</g>
			</g>
		</g>
	</g>
	<g>
		<path class="st15" d="M1442.51,1391.63c-47.88-47.88-85.75-99.07-131.35-152.38c-82.67-96.64-208.3-155.07-335.47-156.04
			c-98.18-0.75-202.37,29.84-290.97-12.47c-23.93-11.43-45.25-27.69-68.83-39.81c-23.59-12.12-57.99-25.61-86.13-18.36
			c-4.11,1.06-11.53,11.12-20.81,1.84c-4.06-4.06-1.63-1.36-4.63-6.25c-17.07-27.81-31.18-58.75-56.72-79.06
			c-25.54-20.31-67.79-24.84-88.01,0.77c-14.1,17.87-12.63,43.4-7.13,65.49c7.34,29.45,20.47,57.09,33.62,84.44
			c35.47,73.78,72.04,147.69,121.54,212.89c49.5,65.2,49.51,65.86,110.19,104.59c45.24,28.87,204.69,33.23,243.17,33.23
			c53.14,0,102.31,5.61,151.44,8.65c42.24,2.61,64.49,30.48,89.08,64.93c29.55,41.39,38.52,83.43,76.21,93.67
			c17.84,4.85,55.76-10.49,72.6-18.11c66.14-29.91,98.17-40.67,158.45-88.67c23.15-18.43,63.84-44.3,52.54-71.66
			C1455.04,1404.19,1449.51,1400.51,1442.51,1391.63z"/>
		<path class="st16" d="M508.11,1025.91c-27.24,27.24-6.87,102.09,49.68,135.25c17.48,10.25,99.33,45.99,118.73,51.84
			c35.49,10.7,204.71,31.47,220.97,27.34"/>
	</g>
</g>
<g id="Layer_18">
	<g id="Layer_16">
	</g>
	<g>
		<defs>
			<circle id="SVGID_7_" cx="2893.02" cy="601.99" r="458.26"/>
		</defs>
		<clipPath id="SVGID_6_">
			<use xlink:href="#SVGID_7_"  style="overflow:visible;"/>
		</clipPath>
		<g class="st18">
			<g>
				<g>
					<polygon class="st7" points="1808.43,772.09 1804.02,772.09 1799.44,1018.06 1808.43,1018.06 1817.43,1018.06 1812.84,772.09 
											"/>
				</g>
				<g>
					<g>
						<path class="st7" d="M1818.05,767.88h-19.24c-2.47,0-4.48,2.72-4.48,6.07c0,3.35,2.01,6.07,4.48,6.07h19.24
							c2.47,0,4.48-2.72,4.48-6.07C1822.53,770.59,1820.53,767.88,1818.05,767.88z"/>
					</g>
					<g>
						<g>
							<g>
								<path class="st7" d="M1789.2,772.67c-2.85,0.07-5.61,0.94-7.99,2.5l-55.41,36.37c-1.08,0.71-0.25,2.38,0.97,1.93
									l57.27-20.91c1.92-0.7,3.58-1.99,4.74-3.68c0,0,9.23-11.89,9.47-12.5l-0.65-3.94L1789.2,772.67z"/>
							</g>
							<g>
								<path class="st7" d="M1822.44,778.07c-1.57-1.32-3.51-2.11-5.55-2.27c0,0-14.91-2.05-15.57-1.95l-3.08,2.53l4.39,7.16
									c1.49,2.43,3.62,4.39,6.16,5.67l59.21,29.8c1.15,0.58,2.18-0.98,1.19-1.81L1822.44,778.07z"/>
							</g>
							<g>
								<path class="st7" d="M1803.37,692.14c-0.07-1.29-1.93-1.4-2.16-0.13l-10.53,60.05c-0.35,2.02-0.07,4.09,0.82,5.94
									c0,0,5.68,13.93,6.1,14.45l3.74,1.4l4.01-7.38c1.36-2.5,1.99-5.33,1.83-8.17L1803.37,692.14z"/>
							</g>
						</g>
					</g>
					<g>
						<ellipse class="st7" cx="1798.82" cy="773.94" rx="4.48" ry="6.07"/>
					</g>
					<path class="st7" d="M1798.82,771.64c-0.94,0-1.7,1.03-1.7,2.3s0.76,2.3,1.7,2.3s1.7-1.03,1.7-2.3
						C1800.52,772.67,1799.75,771.64,1798.82,771.64z"/>
					<g>
						<path class="st7" d="M1797.35,769.2h-1.15c-1.5,0-7.97,2.28-7.94,4.75c0.02,2.27,6.63,4.75,7.94,4.75h1.15
							c1.75,0,3.17-2.13,3.17-4.75C1800.52,771.32,1799.1,769.2,1797.35,769.2z"/>
					</g>
				</g>
			</g>
			<path class="st7" d="M1798.63,983.07c-4.9-2.2-10.31-3.44-16.01-3.44c-22.04,0-39.92,18.27-39.92,40.8
				c0,1.15,0.08,2.29,0.17,3.41c-0.98-0.1-1.98-0.23-2.99-0.23c-15.61,0-28.26,12.98-28.26,28.82h207.24l59.4-83.55l-151.47-12.4
				C1811.94,956.49,1799.79,968.22,1798.63,983.07z"/>
		</g>
	</g>
	<g id="Layer_11">
	</g>
</g>
</svg>
