<svg width="124" height="86" viewBox="0 0 124 86" fill="#337eff" xmlns="http://www.w3.org/2000/svg">
<mask id="path-1-outside-1_102_62" maskUnits="userSpaceOnUse" x="0" y="0" width="124" height="86" fill="black">
<rect fill="white" width="124" height="86"/>
<path fill-rule="evenodd" clip-rule="evenodd" d="M67.6 84.4V1H70.68V39.04L103.08 1H120.24L84 42.76L120.84 84.4H102.96L70.68 47.08V84.4H67.6ZM57 84.4V1H53.92V36.76H14.68V1H1V84.4H14.68V47.92H53.92V84.4H57Z"/>
</mask>
<path fill-rule="evenodd" clip-rule="evenodd" d="M67.6 84.4V1H70.68V39.04L103.08 1H120.24L84 42.76L120.84 84.4H102.96L70.68 47.08V84.4H67.6ZM57 84.4V1H53.92V36.76H14.68V1H1V84.4H14.68V47.92H53.92V84.4H57Z" />
<path d="M67.6 1V0H66.6V1H67.6ZM67.6 84.4H66.6V85.4H67.6V84.4ZM70.68 1H71.68V0H70.68V1ZM70.68 39.04H69.68V41.7563L71.4413 39.6884L70.68 39.04ZM103.08 1V0H102.618L102.319 0.351585L103.08 1ZM120.24 1L120.995 1.65543L122.432 0H120.24V1ZM84 42.76L83.2447 42.1046L82.6704 42.7664L83.251 43.4226L84 42.76ZM120.84 84.4V85.4H123.06L121.589 83.7374L120.84 84.4ZM102.96 84.4L102.204 85.0542L102.503 85.4H102.96V84.4ZM70.68 47.08L71.4363 46.4258L69.68 44.3953V47.08H70.68ZM70.68 84.4V85.4H71.68V84.4H70.68ZM57 84.4V85.4H58V84.4H57ZM57 1H58V0H57V1ZM53.92 1V0H52.92V1H53.92ZM53.92 36.76V37.76H54.92V36.76H53.92ZM14.68 36.76H13.68V37.76H14.68V36.76ZM14.68 1H15.68V0H14.68V1ZM1 1V0H0V1H1ZM1 84.4H0V85.4H1V84.4ZM14.68 84.4V85.4H15.68V84.4H14.68ZM14.68 47.92V46.92H13.68V47.92H14.68ZM53.92 47.92H54.92V46.92H53.92V47.92ZM53.92 84.4H52.92V85.4H53.92V84.4ZM66.6 1V84.4H68.6V1H66.6ZM67.6 2H70.68V0H67.6V2ZM69.68 1V39.04H71.68V1H69.68ZM71.4413 39.6884L103.841 1.64841L102.319 0.351585L69.9187 38.3916L71.4413 39.6884ZM103.08 2H120.24V0H103.08V2ZM119.485 0.344574L83.2447 42.1046L84.7553 43.4154L120.995 1.65543L119.485 0.344574ZM83.251 43.4226L120.091 85.0626L121.589 83.7374L84.749 42.0974L83.251 43.4226ZM120.84 83.4H102.96V85.4H120.84V83.4ZM103.716 83.7458L71.4363 46.4258L69.9237 47.7342L102.204 85.0542L103.716 83.7458ZM69.68 47.08V84.4H71.68V47.08H69.68ZM70.68 83.4H67.6V85.4H70.68V83.4ZM58 84.4V1H56V84.4H58ZM53.92 2H57V0H53.92V2ZM54.92 36.76V1H52.92V36.76H54.92ZM14.68 37.76H53.92V35.76H14.68V37.76ZM13.68 1V36.76H15.68V1H13.68ZM1 2H14.68V0H1V2ZM2 84.4V1H0V84.4H2ZM14.68 83.4H1V85.4H14.68V83.4ZM13.68 47.92V84.4H15.68V47.92H13.68ZM53.92 46.92H14.68V48.92H53.92V46.92ZM54.92 84.4V47.92H52.92V84.4H54.92ZM57 83.4H53.92V85.4H57V83.4Z" mask="url(#path-1-outside-1_102_62)"/>
</svg>