<svg width="194" height="194" viewBox="0 0 194 194" fill="none" xmlns="http://www.w3.org/2000/svg">
<path fill-rule="evenodd" clip-rule="evenodd" d="M182 97C182 143.944 143.944 182 97 182C50.0558 182 12 143.944 12 97C12 50.0558 50.0558 12 97 12C143.944 12 182 50.0558 182 97ZM54.5425 71.5C54.5425 66.825 58.325 63 63 63H131C135.675 63 139.5 66.825 139.5 71.5V122.5C139.5 127.175 135.675 131 131 131H63C58.325 131 54.5 127.175 54.5 122.5L54.5425 71.5ZM97 101.25L63.0001 79.9997V122.5H131V79.9997L97 101.25ZM97 92.75L63.0001 71.5001H131L97 92.75Z" fill="white"/>
</svg>
