<svg width="194" height="194" viewBox="0 0 194 194" fill="none" xmlns="http://www.w3.org/2000/svg">
<path fill-rule="evenodd" clip-rule="evenodd" d="M97 14C50.0436 14 12 52.0071 12 98.915C12 136.436 36.3586 168.251 70.1279 179.483C74.3779 180.26 75.9321 177.637 75.9321 175.391C75.9321 173.375 75.8593 168.032 75.8107 160.941C52.1686 166.077 47.19 149.563 47.19 149.563C43.3164 139.751 37.7429 137.141 37.7429 137.141C30.0321 131.871 38.3257 131.98 38.3257 131.98C46.8621 132.587 51.355 140.723 51.355 140.723C58.9321 153.716 71.245 149.951 76.09 147.79C76.855 142.301 79.0529 138.561 81.4814 136.436C62.6114 134.299 42.77 127.014 42.77 94.4707C42.77 85.2057 46.085 77.6164 51.5129 71.6907C50.6386 69.5414 47.7243 60.9079 52.3629 49.2264C52.3629 49.2264 59.4786 46.9314 75.7257 57.9207C82.6598 56.0316 89.8132 55.068 97 55.055C104.225 55.0914 111.499 56.0264 118.286 57.9207C134.509 46.9314 141.637 49.2143 141.637 49.2143C146.276 60.9079 143.361 69.5414 142.487 71.6786C147.927 77.6286 151.23 85.2057 151.23 94.4707C151.23 127.086 131.34 134.275 112.409 136.364C115.457 138.986 118.177 144.171 118.177 152.101C118.177 163.442 118.068 172.598 118.068 175.391C118.068 177.661 119.61 180.296 123.921 179.471C140.828 173.833 155.534 163.02 165.957 148.564C176.381 134.107 181.993 116.738 182 98.915C181.987 76.3834 173.025 54.7795 157.085 38.8552C141.144 22.9309 119.532 13.9903 97 14Z" fill="white"/>
</svg>
