<svg width="194" height="194" viewBox="0 0 194 194" fill="none" xmlns="http://www.w3.org/2000/svg">
<path d="M119.963 53.1719H74.0367C62.5352 53.1719 53.1719 62.5352 53.1719 74.0367V119.963C53.1719 131.465 62.5352 140.828 74.0367 140.828H119.963C131.465 140.828 140.828 131.465 140.828 119.963V74.0367C140.828 62.5352 131.465 53.1719 119.963 53.1719ZM97 124.293C81.9523 124.293 69.707 112.048 69.707 97C69.707 81.9523 81.9523 69.707 97 69.707C112.048 69.707 124.293 81.9523 124.293 97C124.293 112.048 112.048 124.293 97 124.293ZM125.037 75.2852C121.517 75.2852 118.662 72.4297 118.662 68.9035C118.662 65.384 121.517 62.5285 125.037 62.5285C128.563 62.5285 131.418 65.384 131.418 68.9035C131.418 72.4297 128.563 75.2852 125.037 75.2852ZM97 79.0039C87.0789 79.0039 79.0039 87.0789 79.0039 97C79.0039 106.921 87.0789 114.996 97 114.996C106.921 114.996 114.996 106.921 114.996 97C114.996 87.0789 106.921 79.0039 97 79.0039ZM97 12C50.0574 12 12 50.0574 12 97C12 143.943 50.0574 182 97 182C143.943 182 182 143.943 182 97C182 50.0574 143.943 12 97 12ZM150.125 119.963C150.125 136.591 136.591 150.125 119.963 150.125H74.0367C57.4086 150.125 43.875 136.591 43.875 119.963V74.0367C43.875 57.4086 57.4086 43.875 74.0367 43.875H119.963C136.591 43.875 150.125 57.4086 150.125 74.0367V119.963Z" fill="white" stroke="white" stroke-width="2.69906"/>
</svg>
