<svg width="194" height="194" viewBox="0 0 194 194" fill="none" xmlns="http://www.w3.org/2000/svg">
<path d="M97 12C50.0508 12 12 50.0508 12 97C12 143.949 50.0508 182 97 182C143.949 182 182 143.949 182 97C182 50.0508 143.949 12 97 12ZM73.2266 132.561H56.6582V79.5352H73.2266V132.561ZM64.4941 72.8945H64.3613C58.3516 72.8945 54.4668 68.8438 54.4668 63.6973C54.4668 58.4512 58.4844 54.5 64.5937 54.5C70.7031 54.5 74.4551 58.4512 74.5879 63.6973C74.6211 68.8106 70.7363 72.8945 64.4941 72.8945ZM139.5 132.561H120.707V105.135C120.707 97.9629 117.785 93.0488 111.311 93.0488C106.363 93.0488 103.607 96.3691 102.346 99.5566C101.881 100.686 101.947 102.279 101.947 103.906V132.561H83.3203C83.3203 132.561 83.5527 83.9512 83.3203 79.5352H101.947V87.8691C103.043 84.2168 108.986 79.0371 118.482 79.0371C130.27 79.0371 139.5 86.6738 139.5 103.076V132.561Z" fill="white"/>
</svg>
