<svg width="800" height="800" viewBox="0 0 800 800" fill="none" xmlns="http://www.w3.org/2000/svg">
<path d="M744 400C744 210.014 589.986 56 400 56C210.014 56 56 210.014 56 400C56 589.986 210.014 744 400 744C589.986 744 744 589.986 744 400Z" fill="white"/>
<path d="M253.64 539.543H312.955C314.965 539.543 316.595 537.914 316.595 535.903V274.597C316.595 272.587 314.965 270.958 312.955 270.958H253.64C251.629 270.958 250 272.587 250 274.597V535.903C250 537.914 251.629 539.543 253.64 539.543Z" fill="#16223E"/>
<path d="M431.191 543.807C454.852 543.807 475.652 534.121 488.549 517.496L490.372 536.255C490.554 538.12 492.12 539.543 493.994 539.543H546.331C546.343 539.543 546.355 539.543 546.36 539.543C548.371 539.543 550 537.914 550 535.903C550 535.67 549.98 535.444 549.937 535.223C549.18 522.464 548.425 500.39 548.425 479.299V260.64C548.425 258.629 546.796 257 544.785 257H485.854C483.844 257 482.215 258.629 482.215 260.64V354.241C471.68 344.09 455.045 338.415 435.066 338.415C412.5 338.415 391.348 347.193 375.504 363.133C356.344 382.41 346.323 409.985 346.523 442.854C346.523 501.351 382.129 543.807 431.191 543.807ZM450.185 489.616C427.56 489.616 413.505 470.956 413.505 440.917C413.505 417.737 423.215 390.667 450.576 390.667C467.906 390.667 478.572 403.727 481.49 416.724C481.845 419.595 482.215 423.636 482.215 426.57V451.382C482.215 456.577 481.788 460.348 480.792 463.99C480.772 464.061 480.756 464.133 480.738 464.206C477.56 479.405 465.281 489.616 450.185 489.616Z" fill="#16223E"/>
</svg>
