<svg width="800" height="800" viewBox="0 0 800 800" fill="none" xmlns="http://www.w3.org/2000/svg">
<path d="M400 744.828C590.443 744.828 744.828 590.443 744.828 400C744.828 209.557 590.443 55.1724 400 55.1724C209.557 55.1724 55.1724 209.557 55.1724 400C55.1724 590.443 209.557 744.828 400 744.828Z" fill="white"/>
<path d="M435.516 201C432.632 201 429.949 201.617 427.466 202.45C432.732 205.95 435.632 210.617 437.066 215.883C437.182 216.6 437.382 217.117 437.482 217.833C437.606 218.448 437.678 219.073 437.699 219.7C438.099 228.783 435.316 229.933 433.366 235.3C430.366 242.216 431.199 249.65 434.799 255.633C435.129 256.435 435.542 257.201 436.032 257.916C432.116 231.783 453.915 227.866 457.932 219.7C458.249 212.567 452.365 207.817 447.715 204.517C444.061 202.22 439.831 201.007 435.516 201.017V201ZM468.365 206.883C467.965 209.267 468.265 208.65 468.165 209.883C468.065 210.717 468.065 211.75 467.965 212.567C467.749 213.4 467.549 214.233 467.232 215.05C467.032 215.883 466.732 216.717 466.399 217.533L465.282 219.9C464.949 220.317 464.765 220.733 464.449 221.15L463.832 222.067C463.34 222.774 462.823 223.463 462.282 224.133C461.665 224.766 461.149 225.483 460.415 226V226.1C459.799 226.616 459.182 227.233 458.449 227.766C456.282 229.416 453.815 230.65 451.532 232.2C450.815 232.7 450.082 233.133 449.465 233.75C448.764 234.243 448.106 234.795 447.499 235.4C446.782 236.016 446.265 236.633 445.649 237.366C445.132 237.983 444.515 238.7 444.099 239.433C443.58 240.131 443.096 240.854 442.649 241.6C442.232 242.433 441.932 243.15 441.516 243.966C441.199 244.8 440.899 245.516 440.682 246.35C440.409 247.201 440.17 248.063 439.966 248.933C439.866 249.35 439.866 249.866 439.766 250.266C439.649 250.683 439.649 251.1 439.549 251.516C439.549 252.35 439.449 253.266 439.449 254.1C439.449 254.716 439.449 255.333 439.549 255.95C439.549 256.783 439.649 257.616 439.866 258.533C439.966 259.366 440.166 260.2 440.366 261.033C440.699 261.85 440.899 262.666 441.199 263.5C441.416 264 441.716 264.533 441.932 264.95L418.166 255.75C414.149 254.616 410.216 253.583 406.182 252.65L399.682 251.1C393.483 249.866 387.183 248.933 380.883 248.316C380.666 248.316 380.566 248.216 380.366 248.216C369.72 247.15 359.002 247.011 348.333 247.8C342.033 248.216 335.733 249.033 329.433 250.066C324.751 250.873 320.098 251.84 315.483 252.966L310.833 254.2C309.3 254.816 307.833 255.533 306.4 256.166L302.983 257.716C302.783 257.816 302.583 257.816 302.483 257.916C301.433 258.433 300.517 258.85 299.583 259.366C298.241 259.958 296.929 260.615 295.65 261.333C294.933 261.633 294.217 262.05 293.583 262.366C293.287 262.55 292.981 262.717 292.667 262.866C291.733 263.4 290.8 263.916 289.967 264.433C289.116 264.903 288.293 265.421 287.5 265.983C286.767 266.483 286.05 266.9 285.433 267.416C285.333 267.533 285.217 267.533 285.117 267.633C284.5 268.05 283.783 268.566 283.15 269.083L282.95 269.283L281.4 270.516C281.2 270.633 280.983 270.833 280.783 270.933C280.267 271.349 279.75 271.866 279.233 272.266C279.133 272.483 278.917 272.599 278.817 272.683C278.2 273.316 277.583 273.833 276.967 274.449C276.85 274.449 276.85 274.549 276.75 274.649C276.108 275.211 275.49 275.8 274.9 276.416C274.783 276.516 274.783 276.616 274.683 276.616C274.141 277.147 273.624 277.703 273.133 278.283C272.933 278.483 272.633 278.683 272.417 278.883C271.863 279.538 271.273 280.161 270.65 280.749C270.55 280.949 270.35 281.066 270.25 281.249C269.417 282.083 268.7 282.916 267.867 283.749L267.567 284.049C265.9 285.816 264.15 287.566 262.283 289.116C260.434 290.783 258.467 292.316 256.5 293.666C252.552 296.487 248.29 298.841 243.8 300.683C241.634 301.616 239.35 302.449 237.084 303.166C232.75 304.099 228.3 305.849 224.484 306.166C223.65 306.166 222.734 306.366 221.9 306.466L219.317 307.083L216.834 308.016C216.001 308.333 215.184 308.749 214.367 309.149C213.634 309.666 212.817 310.083 212.084 310.599C211.349 311.131 210.657 311.722 210.017 312.366C209.301 312.866 208.567 313.599 207.951 314.216C207.334 314.932 206.717 315.549 206.201 316.282C205.684 317.116 205.067 317.832 204.651 318.666C204.108 319.417 203.623 320.208 203.201 321.032C202.784 321.966 202.367 322.799 202.067 323.716C201.751 324.549 201.451 325.482 201.134 326.399C200.934 327.232 200.717 328.066 200.634 328.899C200.634 328.982 200.517 329.099 200.517 329.199C200.317 330.132 200.317 331.366 200.201 331.982C200.101 332.716 200.001 333.316 200.001 334.049C199.981 335.846 200.405 337.621 201.234 339.216V339.316C201.551 339.932 201.967 340.566 202.384 341.182C202.784 341.799 203.217 342.416 203.717 343.032C204.234 343.549 204.851 344.182 205.484 344.699C206.086 345.303 206.738 345.855 207.434 346.349C209.917 348.516 210.534 349.232 213.734 350.882C214.251 351.199 214.767 351.399 215.401 351.716C215.501 351.716 215.601 351.816 215.701 351.816C215.701 352.032 215.701 352.132 215.801 352.332C216.042 354.036 216.489 355.704 217.134 357.299C217.467 357.916 217.667 358.532 217.967 359.149C218.084 359.366 218.184 359.566 218.3 359.666C218.7 360.499 219.117 361.215 219.517 361.949L221.067 364.115C221.584 364.732 222.217 365.449 222.834 366.082C223.45 366.699 224.067 367.215 224.8 367.832C224.8 367.832 224.9 367.932 225 367.932C225.617 368.449 226.234 368.965 226.867 369.382C227.586 369.886 228.344 370.332 229.134 370.715C229.85 371.132 230.684 371.549 231.5 371.865C232.166 372.166 232.858 372.406 233.567 372.582C233.684 372.682 233.784 372.682 233.984 372.782C234.4 372.899 234.917 372.999 235.317 373.099C235.017 378.682 234.917 383.932 235.75 385.799C236.667 387.865 241.217 381.565 245.75 374.332C245.15 381.465 244.734 389.832 245.75 392.315C246.9 394.899 253.084 386.832 258.467 377.949C331.716 361.015 398.549 411.615 405.566 483.115C404.232 471.948 390.483 465.765 384.183 467.315C381.083 474.948 375.816 484.765 367.349 490.865C368.066 484.031 367.766 477.031 366.316 470.198C364.002 479.71 359.627 488.597 353.499 496.231C343.7 496.948 333.883 492.198 328.716 485.065C328.3 484.765 328.2 484.148 327.883 483.731C327.583 483.015 327.266 482.281 327.05 481.565C326.75 480.873 326.542 480.144 326.433 479.398C326.333 478.665 326.333 477.948 326.333 477.115V475.565C326.456 474.832 326.629 474.108 326.85 473.398C327.066 472.681 327.266 471.965 327.583 471.231C327.983 470.515 328.3 469.781 328.816 469.065C330.566 464.098 330.566 460.065 327.366 457.698C326.745 457.292 326.086 456.946 325.4 456.665C325 456.565 324.483 456.365 324.066 456.248L323.233 455.948C322.526 455.719 321.801 455.546 321.066 455.431C320.362 455.225 319.633 455.119 318.9 455.115C318.15 454.997 317.392 454.93 316.633 454.915C316.116 454.915 315.6 455.015 315.083 455.015C314.311 455.01 313.542 455.117 312.8 455.331C312.083 455.431 311.366 455.531 310.633 455.731C309.896 455.929 309.172 456.174 308.466 456.465C307.75 456.765 307.133 457.081 306.4 457.398C305.783 457.698 305.167 458.115 304.433 458.431C280.367 474.131 294.733 510.898 311.15 521.548C304.95 522.681 298.65 524.014 296.9 525.364L296.683 525.564C301.133 528.248 305.783 530.531 310.633 532.498C317.25 534.664 324.266 536.614 327.366 537.447V537.548C335.925 539.305 344.677 539.933 353.399 539.414C399.166 536.214 436.666 501.398 443.482 455.531L444.099 458.215C444.415 460.081 444.815 462.048 445.032 463.998V464.098C445.232 465.031 445.332 465.965 445.449 466.798V467.198C445.549 468.131 445.649 469.065 445.649 469.898C445.749 471.031 445.849 472.165 445.849 473.298V474.965C445.849 475.465 445.965 476.081 445.965 476.598C445.965 477.231 445.849 477.848 445.849 478.465V479.915C445.849 480.631 445.749 481.248 445.749 481.981C445.749 482.398 445.749 482.815 445.649 483.315C445.649 484.048 445.549 484.765 445.549 485.598C445.449 485.898 445.449 486.215 445.449 486.515L445.115 488.898C445.115 489.215 445.115 489.515 445.032 489.831C444.915 490.865 444.715 491.798 444.615 492.831V493.031L443.999 495.931V496.231L443.382 499.014C443.382 499.131 443.265 499.348 443.265 499.431C443.075 500.376 442.836 501.311 442.549 502.231V502.531C442.232 503.564 441.932 504.498 441.716 505.431C441.616 505.531 441.616 505.631 441.616 505.631L440.682 508.731C440.282 509.764 439.966 510.698 439.549 511.731C439.132 512.764 438.832 513.798 438.416 514.731C437.999 515.764 437.582 516.681 437.182 517.731H437.066C436.666 518.648 436.232 519.681 435.732 520.614C435.645 520.861 435.54 521.101 435.416 521.331C435.316 521.431 435.316 521.548 435.216 521.648C428.384 535.325 418.44 547.21 406.182 556.347C405.349 556.864 404.532 557.497 403.699 558.114C403.499 558.314 403.199 558.414 402.982 558.614C402.244 559.16 401.488 559.683 400.716 560.181L401.016 560.797H401.132L405.466 560.181H405.566C408.249 559.764 410.932 559.247 413.616 558.731C414.349 558.631 415.166 558.414 415.899 558.214L417.349 557.897C418.066 557.797 418.782 557.597 419.516 557.497C420.132 557.281 420.749 557.164 421.366 556.981C431.699 554.481 441.716 551.081 451.332 547.064C434.729 569.678 412.649 587.698 387.166 599.43C399.066 598.597 410.932 596.647 422.399 593.33C463.902 581.128 498.956 553.119 520.015 515.331C515.762 539.252 506.274 561.937 492.232 581.764C502.244 575.16 511.494 567.469 519.815 558.831C542.937 534.691 558.117 504.052 563.315 471.031C566.815 487.365 567.848 504.198 566.315 520.814C640.881 416.798 572.498 308.949 543.881 280.549C543.781 280.333 543.681 280.233 543.681 280.033C543.581 280.133 543.581 280.133 543.581 280.233C543.581 280.133 543.581 280.133 543.465 280.033C543.465 281.266 543.365 282.499 543.265 283.749C542.978 286.063 542.634 288.37 542.231 290.666C541.731 292.933 541.098 295.216 540.481 297.499C539.748 299.666 538.931 301.933 537.981 304.099C537.037 306.239 536.009 308.341 534.898 310.399C532.592 314.449 529.932 318.286 526.948 321.866C525.398 323.716 523.748 325.366 522.082 327.032C521.107 327.923 520.107 328.785 519.082 329.616L516.715 331.682C514.871 333.138 512.939 334.479 510.932 335.699C508.957 336.971 506.922 338.144 504.832 339.216C502.665 340.249 500.498 341.182 498.332 342.116C493.919 343.794 489.353 345.039 484.699 345.832C482.315 346.249 479.949 346.449 477.665 346.666C476.018 346.782 474.367 346.849 472.715 346.866C470.366 346.833 468.019 346.694 465.682 346.449C463.322 346.264 460.978 345.918 458.665 345.416C456.323 344.99 454.012 344.406 451.749 343.666H451.632C453.915 343.449 456.182 343.249 458.465 342.832C463.117 342.026 467.682 340.781 472.099 339.116C474.365 338.282 476.532 337.249 478.599 336.216C480.765 335.182 482.732 334.049 484.799 332.816C486.765 331.482 488.715 330.132 490.582 328.682C492.448 327.232 494.198 325.682 495.848 324.032C497.598 322.482 499.148 320.732 500.698 318.966C502.248 317.116 503.698 315.249 505.032 313.399C505.248 313.083 505.465 312.666 505.665 312.366C506.698 310.699 507.732 309.049 508.665 307.399C510.942 303.288 512.807 298.961 514.232 294.483C514.965 292.316 515.482 290.049 515.998 287.766C516.415 285.399 516.832 283.133 517.032 280.849C517.232 278.483 517.448 276.099 517.448 273.833C517.448 272.166 517.332 270.516 517.232 268.866C517.026 266.553 516.748 264.246 516.398 261.95C515.997 259.621 515.485 257.313 514.865 255.033C514.132 252.866 513.415 250.583 512.582 248.416C511.748 246.25 510.732 244.083 509.698 242.016C508.548 239.95 507.415 237.883 506.182 235.916C504.862 233.986 503.484 232.096 502.048 230.25C500.498 228.483 498.948 226.716 497.298 224.966C496.429 224.08 495.534 223.218 494.615 222.383C489.949 218.767 485.115 215.367 480.249 212.267C479.581 211.881 478.891 211.536 478.182 211.233C475.118 209.357 471.816 207.883 468.365 206.883Z" fill="#16223E"/>
</svg>
