<svg width="800" height="800" viewBox="0 0 800 800" fill="none" xmlns="http://www.w3.org/2000/svg">
<path d="M744 400C744 210.014 589.986 56 400 56C210.014 56 56 210.014 56 400C56 589.986 210.014 744 400 744C589.986 744 744 589.986 744 400Z" fill="white"/>
<path d="M282.801 535.955V442.576C287.782 443.062 293.656 443.314 300.067 443.314C339.138 443.314 370.729 433.008 391.435 413.498C408.396 397.384 417.741 373.378 417.741 345.903C417.741 319.218 406.581 295.09 387.141 279.718C368.03 264.432 339.946 257 301.286 257C267.796 257 239.496 258.926 217.167 262.728C215.338 263.037 214 264.622 214 266.477V535.955C214 538.056 215.703 539.759 217.804 539.759H278.997C281.099 539.759 282.801 538.056 282.801 535.955ZM282.801 387.338V312.874C286.537 312.158 293.554 311.21 304.524 311.21C332.753 311.21 348.943 324.446 348.943 347.522C348.943 373.051 330.522 388.294 299.662 388.294C292.259 388.294 286.986 388.001 282.801 387.338Z" fill="#16223E"/>
<path d="M528.63 411.2C503.418 402.377 499.165 398.176 499.165 392.098C499.165 381.304 511.505 379.693 518.864 379.693C534.489 379.693 550.788 385.555 559.997 390.573C561.029 391.135 562.255 391.189 563.334 390.722C564.407 390.254 565.209 389.316 565.501 388.181L576.444 345.635C576.89 343.899 576.063 342.087 574.461 341.286C563.101 335.607 542 329.537 516.835 329.537C467.115 329.537 432.389 357.763 432.389 398.113C432.053 417.8 442.002 444.752 491.318 461.353C515.272 469.339 517.894 473.488 517.894 480.438C517.894 483.606 517.894 493.248 495.359 493.248C478.477 493.248 455.685 485.75 444.248 478.805C443.21 478.177 441.941 478.078 440.821 478.54C439.704 479.002 438.872 479.968 438.579 481.143L427.64 525.315C427.223 527 427.999 528.751 429.524 529.576C446.26 538.621 470.257 543.81 495.359 543.81C550.696 543.81 585.072 517.819 585.072 475.929C584.634 444.443 567.219 424.478 528.63 411.2Z" fill="#16223E"/>
</svg>
