<svg width="800" height="800" viewBox="0 0 800 800" fill="none" xmlns="http://www.w3.org/2000/svg">
<path d="M744 400C744 210.014 589.986 56 400 56C210.014 56 56 210.014 56 400C56 589.986 210.014 744 400 744C589.986 744 744 589.986 744 400Z" fill="white"/>
<path d="M377.493 482.972C384.829 483.305 392.324 483.545 399.913 483.545C407.582 483.545 415.158 483.385 422.587 482.972C415.158 492.575 407.822 501.07 400.06 509.166L400.167 509.059C392.444 501.057 385.029 492.548 378.04 483.692L377.493 482.972ZM301.497 472.302C315.941 475.969 333.56 479.09 351.539 481.011L353.286 481.158C364.289 496.269 375.413 509.566 387.35 522.077L387.203 521.917C369.718 541.429 346.124 555.14 319.436 560.061L318.702 560.168C318.649 560.168 318.596 560.168 318.542 560.168C315.235 560.168 312.114 559.355 309.379 557.914L309.486 557.967C298.39 551.632 293.575 527.398 297.323 496.256C298.216 488.587 299.683 480.518 301.484 472.288L301.497 472.302ZM498.663 472.128C500.237 478.45 501.717 486.506 502.771 494.695L502.891 495.842C506.719 526.971 501.997 551.179 490.994 557.647C488.54 559.008 485.606 559.808 482.485 559.808C482.178 559.808 481.871 559.795 481.564 559.781H481.604C454.223 554.78 430.643 541.162 413.197 521.89L413.104 521.783C424.827 509.473 435.871 496.202 445.994 482.238L446.767 481.118C466.453 479.064 484.099 475.889 501.29 471.555L498.663 472.115V472.128ZM317.088 422.353C320.423 428.889 323.917 435.397 327.758 441.933C331.591 448.432 335.507 454.781 339.509 460.978C327.932 459.284 316.755 457.151 306.072 454.55C309.073 444.053 312.834 433.183 317.075 422.327L317.088 422.353ZM482.845 422.02C487.26 432.97 491.007 443.893 494.115 454.483C483.445 457.097 472.175 459.311 460.518 460.978C464.519 454.723 468.521 448.281 472.268 441.679C476.016 435.184 479.524 428.542 482.872 422.007L482.845 422.02ZM288.213 350.679C294.028 370.391 300.27 386.876 307.539 402.774L306.539 400.347C300.323 413.751 294.175 430.142 289.133 447.014L288.44 449.748C279.024 446.854 271.448 444.013 264.073 440.826L265.606 441.412C236.744 429.129 218.072 412.977 218.072 400.173C218.072 387.37 236.744 371.138 265.606 358.908C272.608 355.907 280.291 353.199 288.213 350.679ZM511.467 350.612C519.536 353.106 527.205 355.893 534.38 358.908C563.242 371.245 581.915 387.37 581.915 400.173C581.835 412.977 563.162 429.169 534.3 441.426C527.298 444.427 519.629 447.121 511.72 449.642C505.852 429.862 499.61 413.391 492.368 397.466L493.381 399.973C499.57 386.583 505.732 370.191 510.76 353.319L511.467 350.572V350.612ZM460.411 339.369C472.002 341.089 483.165 343.196 493.848 345.824C490.847 356.36 487.099 367.19 482.845 378.047C479.511 371.552 476.016 365.003 472.175 358.481C468.427 351.946 464.426 345.584 460.425 339.382L460.411 339.369ZM339.415 339.369C335.414 345.65 331.413 352.079 327.678 358.708C323.931 365.203 320.423 371.738 317.088 378.274C312.674 367.337 308.926 356.44 305.818 345.824C316.488 343.33 327.732 341.102 339.402 339.395L339.415 339.369ZM399.993 335.127C412.33 335.127 424.614 335.687 436.698 336.674C443.464 346.375 450.035 356.707 456.41 367.67C462.608 378.34 468.263 389.152 473.375 400.107C468.24 411.03 462.612 421.94 456.49 432.61C450.155 443.613 443.606 454.083 436.818 463.779C424.681 464.833 412.384 465.406 399.98 465.406C387.643 465.406 375.359 464.819 363.276 463.859C356.514 454.163 349.912 443.787 343.563 432.863C337.366 422.193 331.711 411.381 326.598 400.427C331.653 389.477 337.361 378.54 343.483 367.857C349.818 356.854 356.367 346.424 363.156 336.728C375.293 335.661 387.59 335.101 399.993 335.101V335.127ZM399.74 291.367C407.476 299.37 414.891 307.866 421.867 316.722L422.4 317.429C415.065 317.095 407.569 316.868 399.98 316.868C392.311 316.868 384.735 317.028 377.307 317.429C384.722 307.826 392.058 299.33 399.833 291.234L399.727 291.341L399.74 291.367ZM318.369 240.526C345.75 245.54 369.317 259.158 386.776 278.417L386.869 278.524C375.146 290.847 364.103 304.118 353.98 318.109L353.206 319.229C333.533 321.27 315.888 324.417 298.71 328.752L301.324 328.192C299.456 320.029 298.069 312.12 297.096 304.531C293.268 273.402 297.989 249.195 308.993 242.753C311.74 241.459 314.954 240.659 318.342 240.552H318.382L318.369 240.526ZM481.218 240.192V240.299C481.391 240.299 481.591 240.285 481.805 240.285C484.992 240.285 487.993 241.072 490.634 242.459L490.527 242.406C501.624 248.768 506.439 272.989 502.691 304.145C501.797 311.814 500.33 319.896 498.53 328.139C484.059 324.431 466.44 321.296 448.461 319.389L446.754 319.243C435.737 304.118 424.614 290.821 412.677 278.297L412.837 278.457C430.322 258.984 453.876 245.274 480.511 240.325L481.258 240.205L481.218 240.192ZM481.298 222.027C448.728 226.975 420.533 242.793 399.94 265.613L399.833 265.733C379.094 242.926 350.899 227.215 319.129 222.453L318.382 222.36C318.209 222.36 317.995 222.36 317.782 222.36C311.233 222.36 305.085 224.081 299.763 227.095L299.95 227.002C277.036 240.219 271.902 281.404 283.732 333.087C232.997 348.758 200 373.806 200 400.2C200 426.701 233.17 451.816 284.052 467.367C272.315 519.249 277.557 560.502 300.523 573.705C305.565 576.6 311.62 578.294 318.062 578.294C318.356 578.294 318.649 578.294 318.929 578.28H318.889C351.459 573.332 379.654 557.501 400.247 534.667L400.353 534.547C421.093 557.367 449.288 573.079 481.058 577.84L481.805 577.933C482.005 577.933 482.258 577.933 482.498 577.933C489.007 577.933 495.129 576.226 500.423 573.252L500.237 573.345C523.137 560.141 528.285 518.956 516.455 467.26C567.003 451.722 600 426.621 600 400.187C600 373.685 566.83 348.571 515.948 332.98C527.685 281.151 522.443 239.859 499.476 226.641C494.382 223.721 488.273 222 481.765 222C481.591 222 481.418 222 481.244 222H481.271L481.298 222.027ZM437.164 400.2C437.164 420.78 420.479 437.465 399.9 437.465C379.32 437.465 362.635 420.78 362.635 400.2C362.635 379.621 379.32 362.936 399.9 362.936C410.196 362.936 419.506 367.11 426.255 373.846C433.003 380.594 437.164 389.904 437.164 400.2Z" fill="#0F172A"/>
</svg>
