<svg width="800" height="800" viewBox="0 0 800 800" fill="none" xmlns="http://www.w3.org/2000/svg">
<path d="M744 400C744 210.014 589.986 56 400 56C210.014 56 56 210.014 56 400C56 589.986 210.014 744 400 744C589.986 744 744 589.986 744 400Z" fill="white"/>
<g clip-path="url(#clip0_409_26)">
<path d="M400.017 280C346.683 280 313.35 306.667 300.017 360C320.017 333.333 343.35 323.333 370.017 330C385.233 333.8 396.1 344.833 408.15 357.067C427.767 376.967 450.45 400 500.017 400C553.35 400 586.683 373.333 600.017 320C580.017 346.667 556.683 356.667 530.017 350C514.8 346.2 503.933 335.167 491.883 322.933C472.283 303.033 449.6 280 400.017 280ZM300.017 400C246.683 400 213.35 426.667 200.017 480C220.017 453.333 243.35 443.333 270.017 450C285.233 453.8 296.1 464.833 308.15 477.067C327.767 496.967 350.45 520 400.017 520C453.35 520 486.683 493.333 500.017 440C480.017 466.667 456.683 476.667 430.017 470C414.8 466.2 403.933 455.167 391.883 442.933C372.283 423.033 349.6 400 300.017 400Z" fill="#0F172A"/>
</g>
<defs>
<clipPath id="clip0_409_26">
<rect width="400" height="400" fill="white" transform="translate(200 200)"/>
</clipPath>
</defs>
</svg>
